<svg xmlns="http://www.w3.org/2000/svg" height="1200" width="1600" version="1.1" xmlns:xlink="http://www.w3.org/1999/xlink" xmlns:svgjs="http://svgjs.com/svgjs"><rect fill="#ffffff" width="1600" height="1200"></rect><g><path d="M800.51 677.79C786.01 677.75 771.51 676.57 757.19 674.25 690.68 663.47 630.68 628.01 589.1 575 547.52 521.99 527.42 455.22 532.79 388.06 538.16 320.9 568.62 258.19 618.1 212.47 667.58 166.71 732.47 141.3 799.85 141.21 814.35 141.21 828.85 142.39 843.17 144.7 909.67 155.49 969.67 190.95 1011.24 243.96 1052.86 297.01 1072.94 363.74 1067.57 430.9 1062.2 498.06 1031.72 560.76 982.25 606.48 932.77 652.24 867.88 677.66 800.51 677.79Z" fill="#d1a0ff" opacity="1" stroke-width="4" stroke="none"></path><path d="M874.91 549.54C850.42 522.29 817.88 503.51 782.03 496 746.18 488.45 708.89 492.55 675.49 507.66L675.4 507.44C708.8 492.29 746.18 488.23 782.12 495.74 818.02 503.3 850.59 522.07 875.09 549.37L874.91 549.54Z" stroke="#211f23" stroke-width="4" stroke-linecap="round" stroke-linejoin="round" opacity="1" fill="none"></path><path d="M858.45 405.48L858.36 405.22 976.7 379.02 976.79 379.28 858.45 405.48Z" stroke="#211f23" stroke-width="4" stroke-linecap="round" stroke-linejoin="round" opacity="1" fill="none"></path><path d="M886.14 454.21C884.56 454.21 882.99 453.87 881.59 453.21 880.2 452.51 878.93 451.55 877.93 450.33 876.97 449.15 876.22 447.71 875.87 446.18 875.48 444.7 875.44 443.08 875.74 441.55L884.04 402.69 906 398.67 896.09 446.01C895.61 448.32 894.39 450.37 892.56 451.9 890.77 453.38 888.49 454.21 886.14 454.21H886.14Z" fill="#211f23" stroke="#211f23" stroke-width="4" stroke-linecap="round" stroke-linejoin="round" opacity="1"></path><path d="M748.28 382.3L650.04 310.68 650.19 310.51 748.45 382.12 748.28 382.3Z" stroke="#211f23" stroke-width="4" stroke-linecap="round" stroke-linejoin="round" opacity="1" fill="none"></path><path d="M707.49 416.66C705.75 416.66 703.96 416.22 702.39 415.39 700.81 414.56 699.5 413.34 698.5 411.86 697.76 410.72 697.23 409.41 697.01 408.06 696.8 406.7 696.84 405.35 697.15 404L707.19 356.84 725.75 369.46 717.49 408.45C717.01 410.77 715.79 412.82 713.96 414.35 712.17 415.83 709.85 416.66 707.49 416.66Z" fill="#211f23" stroke="#211f23" stroke-width="4" stroke-linecap="round" stroke-linejoin="round" opacity="1"></path></g><g><path d="M662.54 1013.06C662.47 1013.06 662.47 1013.06 662.54 1013.06 658.63 1005.11 654.87 995.04 652.25 984.46 650.76 978.29 649.77 970.42 648.7 963.39 648.7 963.32 648.63 963.39 648.7 963.39L718.37 949.13C718.44 949.13 718.44 949.13 718.44 949.2 720.57 971.62 734.19 980.42 746.18 988.15 757.82 994.25 761.65 1006.17 760.66 1012.98 760.66 1012.98 760.66 1013.06 760.58 1013.06 757.32 1013.06 664.74 1013.06 662.54 1013.06Z" fill="#a56250" opacity="1" stroke-width="4" stroke="none"></path><path d="M658.35 1003.83C656.01 998.3 653.88 991.28 652.25 984.61 652.25 984.54 652.25 984.54 652.32 984.54L709.15 993.26C709.22 993.26 709.22 993.19 709.22 993.19L703.12 978.22C699.93 970.56 705.96 961.55 714.26 961.76 714.26 961.76 720.57 961.76 721.14 961.76 721.14 961.76 721.21 961.76 721.21 961.83 726.25 975.67 736.96 982.41 746.32 988.44 747.1 988.86 747.74 989.36 748.38 989.79 753.92 992.91 758.74 1000.14 759.59 1003.9 759.59 1003.97 759.59 1003.97 759.52 1003.97 756.97 1004.05 713.97 1007.17 684.88 1007.17 669.91 1007.03 658.92 1004.05 658.35 1003.83Z" fill="#767676" opacity="1" stroke-width="4" stroke="none"></path><path d="M662.32 1012.98C660.97 1010.22 659.69 1007.17 658.41 1003.9 658.41 1003.83 658.41 1003.83 658.49 1003.83H759.51C759.51 1003.83 759.58 1003.83 759.58 1003.9 760.65 1006.39 760.79 1011.85 760.58 1013.06 760.58 1013.06 760.58 1013.13 760.51 1013.13 757.24 1013.06 664.59 1013.06 662.32 1012.98 662.32 1013.06 662.32 1013.06 662.32 1012.98Z" fill="#8a2ce2" opacity="1" stroke-width="4" stroke="none"></path><path d="M696.66 984.39C694.96 977.16 693.61 969.64 692.69 962.4 692.69 962.33 692.69 962.33 692.76 962.33L751.43 947.15 762.36 946.08C762.43 946.08 762.43 946.08 762.43 946.15 762.64 951.83 763.64 956.8 765.34 961.62 765.34 961.62 765.34 961.62 765.34 961.69L756.9 1001.85C756.9 1001.92 756.82 1001.92 756.82 1001.92L696.66 984.39C696.66 984.46 696.66 984.46 696.66 984.39Z" fill="#a56250" opacity="1" stroke-width="4" stroke="none"></path><path d="M537.95 883.01V882.94C538.73 881.73 556.4 856.69 578.25 829.8 615.43 783.76 636 767.23 646.72 761.48 674.6 745.8 709.36 756.65 722.77 787.02 736.6 817.17 722.63 893.08 718.51 936.36 718.16 940.69 718.16 944.95 718.51 949.2 718.51 949.2 718.51 949.27 718.44 949.27L649.06 965.52C648.99 965.52 648.99 965.52 648.99 965.45 647.07 952.47 646.08 939.27 646.01 926.22 646.01 926.15 645.93 926.15 645.86 926.22 639.12 944.81 626.57 965.45 614.79 978.58 614.79 978.58 614.72 978.58 614.65 978.58 612.09 975.17 539.66 885.07 537.95 883.01Z" fill="#000000" opacity="1" stroke-width="4" stroke="none"></path><path d="M649.05 965.31C647.13 952.33 646.07 939.13 646.07 925.93 646.07 925.86 645.93 925.86 645.93 925.93 645.08 928.13 644.37 929.91 644.22 928.35 644.93 917.85 665.08 847.61 686.79 848.74 724.54 850.38 719.93 914.44 718.72 936.29 718.36 940.62 718.36 944.88 718.72 949.13 718.72 949.13 718.72 949.2 718.65 949.2L691.76 955.52 649.12 965.38C649.05 965.38 649.05 965.38 649.05 965.31Z" fill="#000000" opacity="0.3" stroke-width="4" stroke="none"></path><path d="M562.79 1013.06C527.88 1014.05 495.67 990.92 483.54 959.07 480.84 951.9 484.32 931.68 484.46 930.97 484.25 930.47 478.15 917.14 479.21 907.49 480.49 895.85 483.11 883.79 486.94 871.45 486.94 871.45 486.94 871.38 487.01 871.38L533.2 869.1 581.94 882.94H582.01C583.79 880.53 653.88 781.2 690.77 761.48 718.66 745.8 753.42 756.65 766.83 787.02 782.08 820.58 763.92 900.11 762.36 946.01 762.36 946.01 762.36 946.08 762.29 946.08 761.22 946.37 742.14 950.76 724.26 954.95 708.65 958.57 693.82 962.05 692.69 962.33 692.62 962.33 692.62 962.33 692.62 962.26 690.91 950.34 690.06 938.07 690.06 926.08 690.06 926 689.99 926 689.92 926.08 666.23 985.53 629.12 1017.6 562.79 1013.06Z" fill="#000000" opacity="1" stroke-width="4" stroke="none"></path><path d="M702.54 1003.76C700.27 997.73 698.22 991.2 696.73 984.54 696.73 984.46 696.73 984.46 696.8 984.46L753.27 993.19C753.34 993.19 753.34 993.12 753.34 993.12L747.24 978.15C744.05 970.49 750.08 961.48 758.38 961.69 758.38 961.69 764.76 961.69 765.33 961.69 765.33 961.69 765.4 961.69 765.4 961.76 770.44 975.6 783.71 982.34 793.14 988.37 793.92 988.79 794.56 989.29 795.2 989.71 800.73 992.84 805.49 1000.14 806.27 1003.83 806.27 1003.9 806.27 1003.9 806.2 1003.9 804.49 1003.97 789.59 1007.66 760.51 1007.66 741.56 1007.66 703.96 1004.05 702.54 1003.76 702.54 1003.83 702.54 1003.83 702.54 1003.76Z" fill="#767676" opacity="1" stroke-width="4" stroke="none"></path><path d="M706.45 1012.98C705.1 1010.22 703.9 1007.17 702.62 1003.9 702.62 1003.83 702.62 1003.83 702.69 1003.83L806.2 1003.9C806.2 1003.9 806.27 1003.9 806.27 1003.97 807.34 1006.6 807.48 1012.06 807.2 1013.06 807.2 1013.06 807.2 1013.13 807.13 1013.13 803.93 1013.06 708.72 1013.06 706.45 1012.98 706.45 1013.06 706.45 1013.06 706.45 1012.98Z" fill="#8a2ce2" opacity="1" stroke-width="4" stroke="none"></path><path d="M690.06 925.65C706.45 885.21 726.38 812.7 726.38 812.7" stroke="#000000" stroke-width="4" stroke-linecap="round" stroke-linejoin="round" opacity="1" fill="none"></path><path d="M692.68 962.26C690.98 950.2 690.13 937.78 690.06 925.65 690.34 924.87 707.37 885.42 726.24 812.77 726.24 812.7 726.31 812.7 726.38 812.77 733.97 819.58 729.22 845.48 727.52 860.52 725.18 879.25 722.05 905 724.32 954.88 724.32 954.88 724.32 954.95 724.25 954.95 722.83 955.31 694.38 961.83 692.68 962.26 692.68 962.33 692.68 962.26 692.68 962.26Z" fill="#000000" opacity="0.3" stroke-width="4" stroke="none"></path><path d="M701.41 834.34C701.41 834.27 701.41 834.27 701.41 834.34 724.39 826.04 739.44 821.36 761.5 821.22 767.67 821.22 772.78 821.71 775.33 822.56 781.01 824.48 781.01 830.37 777.53 832.57 777.46 832.57 777.46 832.64 777.53 832.64 780.09 834.91 782.78 840.51 776.75 843.92 776.75 843.92 776.68 843.99 776.75 843.99 778.39 847.32 778.6 853.14 771.79 854.63 771.79 854.63 765.69 855.63 763.84 855.98 763.77 855.98 763.77 856.12 763.84 856.12 766.4 856.48 777.04 858.68 774.77 863.85 773.35 867.26 757.67 868.11 757.03 868.11 756.68 868.4 748.16 873.93 736.88 873.93 735.11 873.93 732.55 873.72 731.06 873.43 731.06 873.43 731.06 873.43 730.99 873.43 730.71 873.57 728.37 875.35 724.25 878.61 722.48 879.96 717.65 883.86 716.09 885.14 716.02 885.14 716.02 885.14 716.02 885.14 715.31 883.58 702.76 861.23 702.47 860.73L701.41 834.34Z" fill="#a56250" opacity="1" stroke-width="4" stroke="none"></path><path d="M578.25 690.89L601.03 667.33C611.38 654.85 628.48 642.5 651.26 637.89 670.55 632.99 682.76 644.2 687.58 650.8 692.26 657.26 696.09 682.66 696.24 683.44 696.02 683.93 690.42 695.5 687.58 701.03V701.1C691.2 705.29 691.48 711.11 682.54 710.4 682.54 710.4 682.47 710.4 682.47 710.47 674.81 732.46 658.85 736.15 643.95 724.66H643.88C643.52 725.08 640.97 728.2 639.05 730.55 638.77 730.83 638.56 731.18 638.34 731.4 637.56 732.32 637 733.03 636.85 733.24H636.78L578.32 690.96C578.18 690.96 578.18 690.96 578.25 690.89Z" fill="#a56250" opacity="1" stroke-width="4" stroke="none"></path><path d="M645.15 916.85C635.08 916.85 620.46 912.03 608.4 889.11 601.59 876.2 598.54 863.07 598.19 861.51 598.19 861.44 598.12 861.44 598.05 861.51L582.58 883.44H582.51L487.09 871.38C487.01 871.38 487.01 871.3 487.01 871.3 488.65 866.41 495.53 844.27 503.05 819.58 511.85 790.71 521.49 758.43 524.54 746.58 525.33 745.73 576.55 692.73 578.11 691.1H578.18C579.95 692.31 636.14 729.77 638.27 731.4 638.27 731.4 638.34 731.47 638.27 731.47 637.7 732.25 633.52 738.35 633.02 739.06 633.02 739.13 633.02 739.13 633.02 739.13 642.1 742.82 660.34 756.44 662.11 772.55 665.52 794.47 667.01 845.76 667.08 848.46 667.08 848.53 667.15 848.53 667.15 848.53 667.93 848.18 673.04 845.83 680.34 842.71 686.23 840.23 693.54 837.18 701.2 834.27 701.27 834.27 701.27 834.27 701.27 834.34L715.82 885.21V885.28C680.56 910.82 660.55 916 645.15 916.85Z" fill="#767676" opacity="1" stroke-width="4" stroke="none"></path><path d="M708.3 649.95C704.75 649.1 700.63 649.1 696.16 650.16H696.09C692.48 643.07 678.92 630.37 661.26 628.95 664.03 626.82 666.3 623.56 668 619.37 668.28 618.73 668.57 618.02 668.78 617.32 675.31 598.44 662.39 564.11 642.46 567.51 629.33 570.77 625.5 587.16 628.27 602.63 630.47 614.97 636.92 626.68 646.22 630.58 627.49 636.4 611.1 654.7 602.73 664.99 602.02 665.77 601.45 666.55 600.95 667.19H600.88C599.68 666.34 578.25 650.87 552.71 650.94 549.59 650.94 546.54 651.16 543.56 651.51 520.22 654.77 504.11 670.45 500.07 684.22 495.17 697.34 496.45 709.69 496.52 710.61 496.52 710.61 496.52 710.68 496.45 710.68 495.74 710.89 487.87 713.24 479.99 720.26 473.11 726.29 468.78 733.53 466.16 740.76 463.53 748 462.54 755.24 462.4 761.2 460.41 792.77 485.67 814.05 503.19 819.44 503.26 819.44 503.26 819.44 503.26 819.37 503.62 818.52 507.66 808.16 511.56 798.65 513.48 794.04 515.32 789.57 516.6 786.59L516.67 786.52C546.25 790.43 571.8 780.14 585.77 765.88 596.27 755.45 603.08 739.84 604.43 730.97 604.43 730.97 604.43 730.9 604.5 730.9 636.5 725.23 637.14 692.38 636.78 691.03 632.88 686.84 630.11 677.48 631.89 670.74 633.24 663.86 638.7 658.68 645.37 658.82 656.22 658.61 662.68 672.16 661.76 679.46V679.54C662.32 679.96 678.78 685.28 692.19 685.35 703.47 685.35 721.28 679.68 721.14 664.99 720.57 657.19 715.68 651.65 708.3 649.95Z" fill="#231f20" opacity="1" stroke-width="4" stroke="none"></path><path d="M652.53 632C640.82 632 631.1 618.88 628.26 602.91 628.26 602.84 628.33 602.77 628.4 602.84 631.17 605.89 634.08 608.73 637.48 610.93 647.28 617.17 658.27 620.15 668.7 617.32 668.77 617.32 668.77 617.39 668.77 617.39 665.58 626.04 660.33 632 652.53 632Z" fill="#000000" opacity="0.3" stroke-width="4" stroke="none"></path><path d="M499.29 778.58C505.53 783.4 513.05 785.74 516.39 786.59 516.46 786.59 516.46 786.66 516.46 786.66 514.83 790.43 513.69 793.12 511.42 798.65 511.42 798.73 511.35 798.73 511.28 798.73 503.33 793.62 499.43 780.28 499.15 778.65 499.15 778.58 499.22 778.58 499.29 778.58Z" fill="#000000" opacity="0.3" stroke-width="4" stroke="none"></path><path d="M483.54 959.07C477.22 942.96 477.58 924.02 479.21 907.56 479.21 907.49 479.28 907.49 479.28 907.49 480.84 907.7 509.36 911.6 510.92 911.81 510.99 911.81 510.99 911.89 510.99 911.89L505.46 939.98C501.84 961.26 483.68 959.07 483.68 959.07H483.54Z" fill="#000000" opacity="1" stroke-width="4" stroke="none"></path><path d="M560.87 913.94C564.84 895.64 559.73 881.38 559.38 880.53V880.46C584.64 855.84 590.38 824.12 591.16 819.09 591.16 819.02 591.31 819.02 591.31 819.09 592.23 836.33 597.9 860.38 598.12 861.37V861.44L561.01 914.01C560.94 914.09 560.87 914.01 560.87 913.94Z" fill="#383838" opacity="0.3" stroke-width="4" stroke="none"></path><path d="M582.5 883.44C572.07 897.7 560.93 914.01 560.93 914.01" stroke="#000000" stroke-width="4" stroke-linecap="round" stroke-linejoin="round" opacity="1" fill="none"></path><path d="M643.94 672.65L647.49 681.88" stroke="#000000" stroke-width="4" stroke-linecap="round" stroke-linejoin="round" opacity="1" fill="none"></path><path d="M674.81 710.04C672.54 708.69 669.91 708.55 667.43 709.26" stroke="#000000" stroke-width="4" stroke-linecap="round" stroke-linejoin="round" opacity="1" fill="none"></path><path d="M679.49 692.73C682.47 692.8 682.47 697.2 679.49 697.27 676.51 697.2 676.51 692.8 679.49 692.73Z" fill="#000000" opacity="1" stroke-width="4" stroke="none"></path><path d="M639.27 742.39C635.72 740.19 633.09 739.06 633.09 739.06" stroke="#383838" stroke-width="4" stroke-linecap="round" stroke-linejoin="round" opacity="1" fill="none"></path><path d="M777.54 832.71C767.54 832.71 755.55 834.2 755.55 834.2" stroke="#000000" stroke-width="4" stroke-linecap="round" stroke-linejoin="round" opacity="1" fill="none"></path><path d="M776.76 843.99C770.38 843.99 756.97 845.34 756.97 845.34" stroke="#000000" stroke-width="4" stroke-linecap="round" stroke-linejoin="round" opacity="1" fill="none"></path><path d="M763.77 856.05C761.36 856.12 759.44 856.41 757.1 856.9" stroke="#000000" stroke-width="4" stroke-linecap="round" stroke-linejoin="round" opacity="1" fill="none"></path><path d="M667.22 848.53L667.43 865.77" stroke="#383838" stroke-width="4" stroke-linecap="round" stroke-linejoin="round" opacity="1" fill="none"></path><path d="M516.39 786.66C507.23 784.18 499.29 778.65 499.29 778.65" stroke="#000000" stroke-width="4" stroke-linecap="round" stroke-linejoin="round" opacity="1" fill="none"></path><path d="M667.22 848.6C667.72 848.32 673.04 845.98 680.27 842.85 680.34 842.85 680.41 842.93 680.34 842.93L667.57 865.84C667.57 865.91 667.43 865.91 667.43 865.84L667.22 848.6C667.15 848.6 667.15 848.6 667.22 848.6Z" fill="#383838" opacity="0.3" stroke-width="4" stroke="none"></path><path d="M635.65 715.79C637.99 719.97 643.38 724.09 643.95 724.52V724.59L639.19 730.4C639.12 730.48 639.05 730.4 639.05 730.4L635.51 715.86C635.51 715.79 635.58 715.72 635.65 715.79Z" fill="#000000" opacity="0.3" stroke-width="4" stroke="none"></path><path d="M466.08 740.69C474.95 717.21 494.89 711.25 496.31 710.82 496.38 710.82 496.38 710.82 496.38 710.89 496.52 712.1 499 727.14 507.38 735.58 507.45 735.65 507.38 735.73 507.3 735.73 487.87 730.9 468.07 739.84 466.16 740.76 466.16 740.83 466.08 740.76 466.08 740.69Z" fill="#000000" opacity="0.3" stroke-width="4" stroke="none"></path><path d="M582.08 689.61C573.56 659.53 547.45 652.5 543.84 651.65 543.76 651.65 543.76 651.51 543.84 651.51 572.64 647.47 599.17 665.84 600.73 667.26V667.33C599.81 668.4 583.49 688.05 582.22 689.61 582.22 689.68 582.15 689.68 582.08 689.61Z" fill="#000000" opacity="0.3" stroke-width="4" stroke="none"></path><path d="M696.09 650.23C696.09 650.16 696.09 650.16 696.16 650.16 701.05 649.03 704.81 649.17 708.22 649.95 708.29 649.95 708.29 650.02 708.29 650.02 706.87 657.68 703.04 664.42 701.83 666.41 701.69 666.62 701.34 666.62 701.27 666.34 700.63 663.86 698.22 654.92 696.09 650.23Z" fill="#000000" opacity="0.3" stroke-width="4" stroke="none"></path><path d="M644.02 724.66C637.7 719.69 635.51 715.79 635.51 715.79" stroke="#000000" stroke-width="4" stroke-linecap="round" stroke-linejoin="round" opacity="1" fill="none"></path><path d="M598.19 861.37C593.36 841.08 592.87 833.56 591.38 819.09" stroke="#383838" stroke-width="4" stroke-linecap="round" stroke-linejoin="round" opacity="1" fill="none"></path><path d="M600.73 667.4L594.42 675.07" stroke="#000000" stroke-width="4" stroke-linecap="round" stroke-linejoin="round" opacity="1" fill="none"></path><path d="M496.37 710.89C498.57 724.3 502.83 728.91 507.37 735.58" stroke="#000000" stroke-width="4" stroke-linecap="round" stroke-linejoin="round" opacity="1" fill="none"></path><path d="M696.09 650.23C697.72 654.35 699.35 658.54 701.27 666.34" stroke="#000000" stroke-width="4" stroke-linecap="round" stroke-linejoin="round" opacity="1" fill="none"></path></g><g><path d="M994.91 1005.14L1023.81 974.39C1025.9 958.9 1026.46 938.74 1025.9 923.49L954.04 926.7C957.17 946.69 959.1 967.25 952.68 973.59 951.88 974.39 951.15 975.11 950.35 975.84L956.85 1005.22H964.08L994.91 1005.14Z" fill="#996b4d" opacity="1" stroke-width="4" stroke="none"></path><path d="M1113.89 1006.67L1136.61 975.44C1136.93 959.06 1135.41 942.28 1132.36 927.18L1057.05 926.62C1062.59 942.12 1065.56 954.48 1064.92 960.74 1064.36 965.4 1062.35 970.06 1059.3 973.75L1062.19 1006.67H1113.89V1006.67Z" fill="#996b4d" opacity="1" stroke-width="4" stroke="none"></path><path d="M1134.28 1001.13C1135.73 992.7 1136.53 983.54 1136.69 975.44 1135.41 975.27 1134.12 975.19 1132.84 975.19 1117.42 975.19 1103.45 985.87 1099.12 1000.73L1134.28 1001.13Z" fill="#211f23" opacity="1" stroke-width="4" stroke="none"></path><path d="M963.2 613.27L1056.17 613.75H1056.65C1056.81 613.75 1056.97 613.75 1057.13 613.91 1082.5 635.83 1085.87 712.66 1082.02 754.57L1081.78 756.74C1077.68 801.38 1085.71 816.39 1100.32 843.69 1102.89 848.42 1105.46 853.32 1108.27 858.78 1119.59 880.54 1127.7 903.82 1132.52 927.83L1057.61 927.75C1056.65 925.18 1055.68 922.45 1054.64 919.72 1048.54 904.14 1041.72 889.45 1035.05 875.24 1026.3 856.45 1017.23 837.1 1009.44 814.46H1009.36C1010.16 831.8 1014.18 852.92 1021.08 885.6 1023.09 895.31 1024.61 905.59 1025.5 916.1 1025.9 920.76 1026.06 922.69 1026.14 926.14L954.04 927.75C953.8 926.14 953.56 924.53 953.24 922.85 952.84 920.6 952.44 918.35 952.04 916.02 950.91 909.44 949.63 902.46 948.26 895.07 943.28 867.77 937.58 836.7 934.05 803.06 925.06 718.84 962.79 614.39 963.2 613.27Z" fill="#8a2ce2" opacity="1" stroke-width="4" stroke="none"></path><path d="M1029.03 862.23C1029.03 862.23 1023.49 811.49 1037.54 761.71 1051.99 710.33 1054.08 704.79 1046.29 685.12L1042.84 701.34 1013.29 776.49 1009.28 814.3C1019.96 842.96 1019.8 841.52 1029.03 862.23Z" fill="#2d2931" opacity="0.3" stroke-width="4" stroke="none"></path><path d="M1046.61 680.38C1043.32 714.91 1026.86 738.03 1018.35 761.87 1011.37 783.39 1008.96 785.4 1009.44 814.94" stroke="#2d2931" stroke-width="4" stroke-linecap="round" stroke-linejoin="round" opacity="1" fill="none"></path><path d="M1019.07 1000.81C1021 992.54 1022.61 983.38 1023.81 974.39 1007.51 974.95 993.62 985.55 988.24 1000.81H1019.07Z" fill="#211f23" opacity="1" stroke-width="4" stroke="none"></path><path d="M964.4 1000.73C963.36 991.01 958.3 981.7 950.51 975.68 947.22 978.65 943.53 981.3 940.07 983.95 933.17 989 926.67 993.9 922.65 1000.08 922.57 1000.16 922.49 1000.73 922.57 1000.73H964.4Z" fill="#211f23" opacity="1" stroke-width="4" stroke="none"></path><path d="M1075.27 1000.32C1074.95 989.32 1068.85 979.13 1059.38 973.67 1056.57 977.2 1053.12 980.17 1049.42 983.3 1043.8 988.04 1038.02 993.02 1034.73 1000.24L1035.77 1005.22 1075.27 1000.32Z" fill="#211f23" opacity="1" stroke-width="4" stroke="none"></path><path d="M983.11 613.91C983.11 613.91 953.4 727.91 962.23 804.19 969.7 868.41 981.18 927.1 981.18 927.1" stroke="#2d2931" stroke-width="4" stroke-linecap="round" stroke-linejoin="round" opacity="1" fill="none"></path><path d="M1015.78 1012.85C1015.94 1012.37 1017.47 1007.95 1019.15 1000.4L922.57 1000.32C920.16 1004.02 918.72 1008.51 918.72 1012.93L1015.78 1012.85Z" fill="#000000" opacity="1" stroke-width="4" stroke="none"></path><path d="M1131.64 1012.85C1132.92 1008.59 1133.88 1004.34 1134.45 1000.32L1034.73 1000.24C1032.96 1004.26 1032.08 1008.51 1032 1012.85H1131.64V1012.85Z" fill="#000000" opacity="1" stroke-width="4" stroke="none"></path><path d="M798.85 672.28C804.95 672.28 825.99 651.48 826.23 651.24 826.39 651.24 844.77 647.87 851.12 635.18 851.12 635.18 851.12 635.18 851.2 635.18 851.92 635.18 859.15 634.86 867.98 634.22 868.3 634.22 868.46 634.14 868.86 634.14L852.8 584.04C810.57 598.98 786.65 611.26 784.8 619.13 784.48 620.65 784.88 622.02 785.3 623 785.84 623.3 767.86 637.99 768.74 646.02 768.9 647.63 769.87 648.91 771.55 649.72 771.55 649.72 770.83 653.33 772.76 655.74 773.88 657.1 775.65 657.74 777.98 657.74 777.98 657.74 777.98 659.19 778.78 660.55 779.58 661.84 781.19 663.44 784.64 663.44 785.04 663.44 785.52 663.44 786 663.36 793.95 662.56 804.31 654.61 804.47 654.53 804.31 654.69 795.48 665.93 796.6 670.59 796.76 671.39 797.24 671.95 797.97 672.2 798.37 672.2 798.61 672.28 798.85 672.28Z" fill="#996b4d" opacity="1" stroke-width="4" stroke="none"></path><path d="M1038.1 463.45C1038.1 462.81 1037.38 411.83 1037.38 400.43 1037.46 380.36 1025.82 367.59 1005.75 367.03L1003.42 365.83C987.12 365.83 976.04 365.74 969.3 376.34 965.6 382.2 962.79 395.45 961.35 406.35 961.35 406.45 954.69 407.57 954.04 410.79 953.56 414 959.58 418.97 959.58 418.97 959.58 418.97 954.93 435.03 959.5 445.15 964.08 455.26 977 455.58 988.16 452.85L988.41 463.93 1038.1 463.45Z" fill="#996b4d" opacity="1" stroke-width="4" stroke="none"></path><path d="M1000.37 447.32C995.47 450.13 988.32 452.85 988.24 452.85L988.41 461.37 1000.61 447.72C1000.85 447.48 1000.61 447.15 1000.37 447.32Z" fill="#191919" opacity="0.3" stroke-width="4" stroke="none"></path><path d="M965.44 386.14C966.33 382.6 967.37 379.47 969.14 376.34 974.68 367.67 983.35 362.69 994.98 360.36 995.07 360.37 994.83 359.48 994.59 358.6 991.78 348.4 993.3 339.17 998.76 332.67 1003.58 326.97 1011.05 323.84 1019.96 323.84 1020.84 323.84 1021.64 323.84 1021.8 323.22 1022.69 319.34 1024.21 315.25 1026.86 312.03 1030.64 307.54 1036.66 305.05 1043.8 305.05 1053.44 305.05 1064.11 309.38 1073.11 316.93 1081.06 323.59 1086.76 331.86 1089.16 340.29 1091.57 348.72 1090.45 356.35 1086.03 361.65 1081.38 367.41 1073.28 367.99 1073.56 368.08 1075.52 376.98 1074.07 385.33 1068.93 391.52 1064.11 397.22 1056.65 400.35 1047.74 400.35 1045.01 400.35 1039.31 399.1 1039.35 399.48 1039.39 410.79 1038.91 434.23 1038.05 449.64H1037.81C1033.37 449.29 1022.53 445.55 1013.88 432.89 1013.52 432.35 1024.77 422.03 1025.18 413.27 1025.34 409.42 1024.05 406.05 1021.24 403.24 1018.83 400.83 1016.02 399.63 1012.97 399.63 1003.82 399.63 994.83 410.38 994.75 410.34 994.67 410.38 985.11 404.68 986.6 390.59 986.96 390.39 983.99 390.79 981.1 390.79 971.3 390.79 965.68 386.3 965.44 386.14Z" fill="#ffffff" opacity="1" stroke-width="4" stroke="none"></path><path d="M867.98 634.22C882.99 633.02 910.29 629.64 924.02 620.73 942.88 608.45 955.33 580.67 957.41 575.77 957.5 575.53 957.82 575.61 957.82 575.85L963.2 613.27C963.28 613.91 963.84 614.39 964.48 614.39L1056.57 614.31C1056.97 614.31 1057.37 614.55 1057.69 614.87L1067.97 629.56C1068.29 630.05 1068.93 630.29 1069.49 630.05 1072.14 629.08 1079.93 625.71 1087.24 618.73 1095.51 610.86 1104.82 596.57 1102.25 573.36 1098.16 535.55 1080.49 494.28 1071.74 481.84 1056.04 469.56 1040.29 468.15 1032.75 467.72 1029.71 467.14 1011.98 467.78 998.92 466.62 991.26 467.35 986.45 467.14 983.96 467.72 980.31 467.14 952.44 468.55 933.65 489.95 918.56 514.76 895.51 564.77 892.95 570.47 892.78 570.79 892.46 571.04 892.14 571.2 888.85 572.16 871.83 577.3 852.48 584.12 851.76 584.36 851.44 585.09 851.68 585.81L867.98 634.22Z" fill="#000000" opacity="1" stroke-width="4" stroke="none"></path><path d="M1068.53 630.45C1072.54 629.08 1076.64 626.91 1080.49 624.27L1080.41 624.18C1070.94 609.65 1068.61 594.72 1067.81 569.67 1067.81 569.19 1067.09 569.11 1066.92 569.59L1057.21 614.15C1057.21 614.23 1057.21 614.39 1057.29 614.47L1068.53 630.45Z" fill="#000000" opacity="0.3" stroke-width="4" stroke="none"></path><path d="M990.09 612.78L967.77 556.26C967.37 555.22 965.93 555.22 965.52 556.26L957.9 574.73C957.82 574.97 957.82 575.13 957.82 575.37L963.28 613.43C963.36 613.99 963.84 614.47 964.48 614.47H988.97C989.77 614.47 990.41 613.59 990.09 612.78Z" fill="#000000" opacity="0.3" stroke-width="4" stroke="none"></path><path d="M1032 545.5C1033.69 545.5 1035.45 545.34 1037.3 545.1 1044.77 543.9 1050.47 540.45 1054.24 534.91 1061.14 524.87 1060.18 510.42 1059.38 504.48 1059.22 503.19 1060.42 502.15 1061.63 502.47 1065 503.35 1067.65 503.76 1069.98 503.76 1073.67 503.76 1076.88 502.87 1080.81 500.62 1081.3 500.38 1081.46 499.82 1081.22 499.34 1077.84 491.87 1074.63 485.61 1071.9 481.76 1060.82 465.86 1039.87 462.57 1038.1 462.57 1038.1 462.57 1015.38 462.41 999.73 462.41 987.6 462.41 985.92 462.65 985.92 462.65 985.92 462.65 949.71 463.69 933.65 489.87 929.4 496.93 924.42 506 920.64 513.39 920.24 514.11 920.88 515 921.69 515 930.52 514.19 937.91 508.33 941.28 505.04 942 504.4 943.12 504.88 943.04 505.84 942.8 510.98 943.12 521.82 948.66 528.64 951.63 532.34 955.81 534.51 960.95 534.99 961.99 535.07 962.95 535.15 964 535.15 982.62 535.15 992.26 518.69 995.71 511.22 996.19 510.18 997.72 510.26 998.04 511.38 1000.77 520.94 1009.92 545.5 1032 545.5Z" fill="#2c2c2c" opacity="1" stroke-width="4" stroke="none"></path><path d="M970.98 409.02C969.65 409.02 968.57 407.94 968.57 406.61 968.57 405.28 969.65 404.2 970.98 404.2 972.32 404.2 973.39 405.28 973.39 406.61 973.39 407.94 972.32 409.02 970.98 409.02Z" fill="#231f20" opacity="1" stroke-width="4" stroke="none"></path><path d="M974.68 422.91C973.23 424.75 970.9 425.72 968.57 425.4" stroke="#191919" stroke-width="4" stroke-linecap="round" stroke-linejoin="round" opacity="1" fill="none"></path><path d="M1011.53 413.6L1005.35 419.62" stroke="#191919" stroke-width="4" stroke-linecap="round" stroke-linejoin="round" opacity="1" fill="none"></path><path d="M996.67 449.24C993.94 450.61 991.05 451.73 988.24 452.85" stroke="#191919" stroke-width="4" stroke-linecap="round" stroke-linejoin="round" opacity="1" fill="none"></path><path d="M1057.29 614.39L1068.85 560.52" stroke="#000000" stroke-width="4" stroke-linecap="round" stroke-linejoin="round" opacity="1" fill="none"></path><path d="M957.74 574.97L967.05 552.41" stroke="#000000" stroke-width="4" stroke-linecap="round" stroke-linejoin="round" opacity="1" fill="none"></path><path d="M771.47 649.72C781.19 639.84 791.62 630.69 802.78 622.42" stroke="#191919" stroke-width="4" stroke-linecap="round" stroke-linejoin="round" opacity="1" fill="none"></path><path d="M778.7 658.55C778.7 658.55 793.95 643.29 809.21 632.86" stroke="#191919" stroke-width="4" stroke-linecap="round" stroke-linejoin="round" opacity="1" fill="none"></path><path d="M804.39 654.53L815.63 643.29" stroke="#191919" stroke-width="4" stroke-linecap="round" stroke-linejoin="round" opacity="1" fill="none"></path></g></svg>