<svg xmlns="http://www.w3.org/2000/svg" height="1200" width="1600" version="1.1" xmlns:xlink="http://www.w3.org/1999/xlink" xmlns:svgjs="http://svgjs.com/svgjs"><rect fill="#ffffff" width="1600" height="1200"></rect><g><path d="M988.15 483.41C1060.42 567.89 1107.35 678.18 1086.7 775.33 1066.05 872.01 977.82 955.55 873.16 1006.24 768.5 1057.39 647.89 1075.7 562 1031.11 476.58 986.06 426.37 877.17 401.02 763.6 375.68 650.02 374.74 531.28 432 450.09 489.73 368.9 605.65 325.72 712.18 332.76 818.72 340.27 915.87 398.94 988.15 483.41Z" fill="#d7d7d7" opacity="1" stroke-width="4" stroke="none"></path></g><g><path d="M508.43 734.3C507.91 734.3 507.38 734.3 506.95 734.3 488.51 734.04 460.16 727.15 429.55 696.03 411.19 677.47 400.58 658.73 400.5 658.55 400.76 658.46 424.24 652.19 460.77 652.19 463.29 652.19 465.9 652.19 468.42 652.27 480.51 652.54 492.25 660.64 492.25 660.64 492.25 660.64 511.38 656.11 514.52 656.63 537.04 660.64 554.78 667.09 566.26 672.06 580.44 678.25 588.35 683.66 588.35 683.66 588.35 683.83 583.14 696.47 570.7 709.02 559.31 720.53 539.22 734.3 508.43 734.3 508.43 734.3 508.51 734.3 508.43 734.3Z" fill="#f1eaea" opacity="1" stroke-width="4" stroke="none"></path><path d="M509.47 722.53C497.9 722.53 481.9 698.21 472.16 665.96 470.77 661.43 469.46 656.81 468.42 652.27 480.51 652.54 492.86 653.41 504.86 655.06 508.17 655.5 511.73 656.11 514.52 656.63 524.08 690.11 522.69 718.87 511.65 722.27 510.95 722.36 510.25 722.53 509.47 722.53Z" fill="#8a2ce2" opacity="1" stroke-width="4" stroke="none"></path><path d="M666.89 686.88C640.28 686.88 621.14 673.98 620.97 673.81 621.14 673.46 634.27 642.16 667.58 610 670.11 607.56 690.46 603.46 690.46 603.46 690.46 603.46 694.02 587.42 703.16 580.97 736.64 557.44 762.82 548.46 763.17 548.28 763.25 548.55 764.82 569.99 759.86 595.7 755.34 619.41 744.12 651.66 716.72 670.67 701.16 681.39 684.37 686.88 666.89 686.88Z" fill="#f1eaea" opacity="1" stroke-width="4" stroke="none"></path><path d="M703.94 663.43C692.98 663.43 677.33 640.42 667.58 610 669.67 607.91 671.93 605.9 674.28 603.81L674.54 603.55C683.85 595.35 693.5 587.77 703.16 580.97 704.98 585.68 706.55 590.12 707.77 594.4 718.2 628.83 717.42 659.6 706.11 663.08 705.42 663.35 704.63 663.43 703.94 663.43Z" fill="#8a2ce2" opacity="1" stroke-width="4" stroke="none"></path></g><g><path d="M1177.95 589.91C1136.48 589.91 1119.65 553.05 1119.47 552.68 1119.56 552.59 1125.26 547.8 1135.83 542.09 1144.38 537.48 1157.72 531.3 1174.73 526.88 1177.12 526.23 1188.89 523.65 1188.89 523.65 1188.89 523.65 1203.51 521.53 1209.58 520.98 1216.47 520.34 1223.37 520.06 1230.27 520.06 1249.67 520.06 1261.62 522.64 1261.8 522.73 1261.53 523.38 1232.56 585.58 1183.92 589.64 1181.9 589.82 1179.88 589.91 1177.95 589.91Z" fill="#f1eaea" opacity="1" stroke-width="4" stroke="none"></path><path d="M1181.07 580.05C1180.61 580.05 1180.15 579.96 1179.79 579.87 1171.23 577.66 1168.84 554.43 1174.73 526.88 1176.94 526.23 1179.51 525.59 1181.99 525.13 1191.1 523.19 1200.29 521.81 1209.58 520.98 1209.12 524.11 1208.47 528.08 1207.46 532.32 1201.39 559.13 1189.81 580.05 1181.07 580.05Z" fill="#8a2ce2" opacity="1" stroke-width="4" stroke="none"></path><path d="M1055.75 559.23C1043.79 559.23 1032.02 555.63 1020.9 548.44 979.15 521.63 979.98 452.32 979.98 451.68 980.25 451.77 1000.85 457.76 1027.42 475.09 1032.3 478.22 1039.38 489.46 1039.38 489.46 1039.38 489.46 1053.91 495.08 1055.84 496.84 1082.87 521.35 1094.09 545.96 1094.18 546.23 1094 546.42 1078.18 559.23 1055.75 559.23Z" fill="#f1eaea" opacity="1" stroke-width="4" stroke="none"></path><path d="M1030.09 541.99C1029.63 541.99 1029.17 541.9 1028.8 541.81 1019.98 539.6 1018.05 514.62 1024.48 486.24 1025.31 482.64 1026.32 478.77 1027.42 475.09 1034.96 479.97 1042.6 485.59 1050.23 491.95 1052.16 493.52 1054 495.18 1055.84 496.84 1049.58 522.55 1038.55 541.99 1030.09 541.99Z" fill="#8a2ce2" opacity="1" stroke-width="4" stroke="none"></path></g><g><path d="M726.45 377.61C685.49 377.61 666.79 343.96 666.62 343.61 666.7 343.53 672.53 338.47 683.4 332.19 692.01 327.23 706.62 320.17 723.93 314.94 726.71 314.06 742.63 319.12 742.63 319.12 742.63 319.12 751.24 308.49 760.28 307.27 773.85 305.43 785.94 304.82 794.46 304.82 807.68 304.82 815.6 306.04 815.68 306.04 815.6 306.22 808.81 322.26 795.77 338.99 783.68 354.42 763.68 373.51 736.89 377 733.41 377.43 729.84 377.61 726.45 377.61Z" fill="#f1eaea" opacity="1" stroke-width="4" stroke="none"></path><path d="M733.06 367.67C732.71 367.67 732.37 367.67 732.02 367.58 722.8 365.84 719.23 342.65 723.93 314.94 726.36 314.24 729.23 313.28 731.76 312.67 740.89 310.32 750.37 308.57 760.28 307.27 759.94 311.27 759.24 315.55 758.63 318.68 753.67 346.14 742.45 367.67 733.06 367.67Z" fill="#8a2ce2" opacity="1" stroke-width="4" stroke="none"></path><path d="M596.17 353.9C584.69 353.9 573.21 350.85 562.08 344.92 538.25 332.11 526.24 307.18 520.42 288.52 514.07 268.3 513.37 250.87 513.37 250.69 513.63 250.78 535.38 255.49 564.42 271.35 572.43 275.71 574.95 291.4 574.95 291.4 574.95 291.4 594.43 290.35 596.52 292.01 626.43 314.94 639.31 338.38 639.39 338.65 639.39 338.91 621.83 353.9 596.17 353.9 596.26 353.9 596.26 353.9 596.17 353.9Z" fill="#f1eaea" opacity="1" stroke-width="4" stroke="none"></path><path d="M571.12 337.95C570.77 337.95 570.34 337.95 569.99 337.86 560.51 336.12 557.12 311.36 562.34 282.68 562.95 279.02 563.38 275.27 564.42 271.35 573.12 276.06 581.99 281.38 589.99 287.04 592.08 288.52 594.6 290.53 596.6 292.1 591.39 318.6 580.17 337.95 571.12 337.95Z" fill="#8a2ce2" opacity="1" stroke-width="4" stroke="none"></path></g><g><path d="M846.61 225.09H821.91C669.97 225.09 546.82 348.52 546.82 500.8L546.82 960.44H1121.7V500.8C1121.7 348.52 998.55 225.09 846.61 225.09Z" stroke="#211f23" stroke-width="4" stroke-linecap="round" stroke-linejoin="round" opacity="1" fill="none"></path><path d="M723.2 960.44L723.2 407.71C723.2 330.65 766.25 260.14 834.7 225.01" stroke="#211f23" stroke-width="4" stroke-linecap="round" stroke-linejoin="round" opacity="1" fill="none"></path><path d="M945.24 960.44L945.24 407.71C945.24 330.65 902.19 260.14 833.83 225.01" stroke="#211f23" stroke-width="4" stroke-linecap="round" stroke-linejoin="round" opacity="1" fill="none"></path><path d="M834.26 225.09C824.32 225.09 816.26 217.01 816.26 207.05 816.26 197.09 824.32 189.01 834.26 189.01 844.2 189.01 852.27 197.09 852.27 207.05 852.27 217.01 844.2 225.09 834.26 225.09Z" stroke="#211f23" stroke-width="4" stroke-linecap="round" stroke-linejoin="round" opacity="1" fill="none"></path></g><g><path d="M891.78 895.29C891.7 895.29 891.7 895.29 891.78 895.29 887 885.53 882.39 873.15 879.17 860.17 877.34 852.58 876.13 842.91 874.82 834.28 874.82 834.19 874.74 834.28 874.82 834.28L960.23 816.76C960.32 816.76 960.32 816.76 960.32 816.84 962.92 844.39 979.62 855.2 994.32 864.7 1008.58 872.19 1013.28 886.84 1012.06 895.21 1012.06 895.21 1012.06 895.29 1011.98 895.29 1007.98 895.29 894.48 895.29 891.78 895.29Z" fill="#a56250" opacity="1" stroke-width="4" stroke="none"></path><path d="M886.65 883.96C883.78 877.16 881.17 868.53 879.17 860.34 879.17 860.25 879.17 860.25 879.26 860.25L948.92 870.97C949.01 870.97 949.01 870.89 949.01 870.89L941.53 852.49C937.62 843.08 945.01 832.01 955.18 832.27 955.18 832.27 962.92 832.27 963.62 832.27 963.62 832.27 963.71 832.27 963.71 832.36 969.88 849.36 983.01 857.64 994.49 865.05 995.45 865.57 996.23 866.18 997.02 866.7 1003.8 870.54 1009.71 879.43 1010.76 884.05 1010.76 884.14 1010.76 884.14 1010.67 884.14 1007.54 884.22 954.84 888.06 919.18 888.06 900.83 887.88 887.35 884.22 886.65 883.96Z" fill="#000000" opacity="1" stroke-width="4" stroke="none"></path><path d="M891.51 895.21C889.86 891.81 888.29 888.06 886.73 884.05 886.73 883.96 886.73 883.96 886.82 883.96H1010.66C1010.66 883.96 1010.75 883.96 1010.75 884.05 1012.05 887.1 1012.23 893.81 1011.97 895.29 1011.97 895.29 1011.97 895.38 1011.88 895.38 1007.88 895.29 894.3 895.29 891.51 895.21 891.51 895.29 891.51 895.29 891.51 895.21Z" fill="#211f23" opacity="1" stroke-width="4" stroke="none"></path><path d="M933.62 860.08C931.53 851.19 929.88 841.95 928.74 833.06 928.74 832.97 928.74 832.97 928.83 832.97L1000.76 814.32 1014.15 813.01C1014.24 813.01 1014.24 813.01 1014.24 813.1 1014.5 820.07 1015.72 826.17 1017.8 832.1 1017.8 832.1 1017.8 832.1 1017.8 832.18L1007.45 881.52C1007.45 881.61 1007.37 881.61 1007.37 881.61L933.62 860.08C933.62 860.17 933.62 860.17 933.62 860.08Z" fill="#a56250" opacity="1" stroke-width="4" stroke="none"></path><path d="M739.06 735.52V735.43C740.02 733.95 761.67 703.18 788.46 670.14 834.03 613.57 859.25 593.26 872.39 586.2 906.57 566.94 949.18 580.27 965.62 617.58 982.58 654.63 965.45 747.89 960.4 801.07 959.97 806.38 959.97 811.61 960.4 816.84 960.4 816.84 960.4 816.93 960.32 816.93L875.26 836.89C875.17 836.89 875.17 836.89 875.17 836.8 872.82 820.85 871.6 804.64 871.52 788.6 871.52 788.51 871.43 788.51 871.34 788.6 863.08 811.44 847.69 836.8 833.25 852.93 833.25 852.93 833.16 852.93 833.08 852.93 829.95 848.75 741.15 738.04 739.06 735.52Z" fill="#000000" opacity="1" stroke-width="4" stroke="none"></path><path d="M875.25 836.63C872.9 820.68 871.6 804.47 871.6 788.25 871.6 788.17 871.42 788.17 871.42 788.25 870.38 790.95 869.51 793.13 869.33 791.22 870.2 778.32 894.9 692.02 921.52 693.41 967.79 695.42 962.13 774.13 960.65 800.98 960.22 806.3 960.22 811.53 960.65 816.76 960.65 816.76 960.65 816.84 960.57 816.84L927.61 824.6 875.34 836.72C875.25 836.72 875.25 836.72 875.25 836.63Z" fill="#231f20" opacity="0.3" stroke-width="4" stroke="none"></path><path d="M769.5 895.29C726.71 896.51 687.23 868.1 672.35 828.96 669.05 820.16 673.31 795.31 673.48 794.44 673.22 793.83 665.74 777.44 667.05 765.59 668.61 751.29 671.83 736.48 676.53 721.31 676.53 721.31 676.53 721.22 676.62 721.22L733.23 718.43 792.98 735.43H793.07C795.24 732.47 881.17 610.43 926.4 586.2 960.58 566.94 1003.19 580.27 1019.63 617.58 1038.33 658.81 1016.06 756.52 1014.15 812.92 1014.15 812.92 1014.15 813.01 1014.06 813.01 1012.76 813.36 989.36 818.76 967.45 823.9 948.31 828.35 930.14 832.62 928.74 832.97 928.66 832.97 928.66 832.97 928.66 832.88 926.57 818.24 925.53 803.16 925.53 788.43 925.53 788.34 925.44 788.34 925.35 788.43 896.3 861.47 850.82 900.87 769.5 895.29Z" fill="#211f23" opacity="1" stroke-width="4" stroke="none"></path><path d="M940.83 883.87C938.04 876.47 935.52 868.45 933.69 860.25 933.69 860.17 933.69 860.17 933.78 860.17L1003.01 870.89C1003.1 870.89 1003.1 870.8 1003.1 870.8L995.62 852.41C991.7 842.99 999.1 831.92 1009.27 832.18 1009.27 832.18 1017.1 832.18 1017.79 832.18 1017.79 832.18 1017.88 832.18 1017.88 832.27 1024.06 849.27 1040.32 857.55 1051.89 864.96 1052.84 865.48 1053.63 866.09 1054.41 866.62 1061.19 870.45 1067.02 879.43 1067.98 883.96 1067.98 884.05 1067.98 884.05 1067.89 884.05 1065.8 884.14 1047.54 888.67 1011.88 888.67 988.66 888.67 942.56 884.22 940.83 883.87 940.83 883.96 940.83 883.96 940.83 883.87Z" fill="#000000" opacity="1" stroke-width="4" stroke="none"></path><path d="M945.62 895.21C943.96 891.81 942.49 888.06 940.92 884.05 940.92 883.96 940.92 883.96 941.01 883.96L1067.9 884.05C1067.9 884.05 1067.99 884.05 1067.99 884.14 1069.29 887.36 1069.46 894.07 1069.12 895.29 1069.12 895.29 1069.12 895.38 1069.03 895.38 1065.12 895.29 948.4 895.29 945.62 895.21 945.62 895.29 945.62 895.29 945.62 895.21Z" fill="#211f23" opacity="1" stroke-width="4" stroke="none"></path><path d="M925.52 787.9C945.61 738.22 970.05 649.13 970.05 649.13" stroke="#000000" stroke-width="4" stroke-linecap="round" stroke-linejoin="round" opacity="1" fill="none"></path><path d="M928.74 832.88C926.65 818.06 925.61 802.81 925.52 787.9 925.87 786.94 946.74 738.48 969.87 649.22 969.87 649.13 969.96 649.13 970.05 649.22 979.35 657.59 973.53 689.4 971.44 707.88 968.57 730.9 964.74 762.54 967.53 823.82 967.53 823.82 967.53 823.9 967.44 823.9 965.7 824.34 930.82 832.36 928.74 832.88 928.74 832.97 928.74 832.88 928.74 832.88Z" fill="#000000" opacity="0.3" stroke-width="4" stroke="none"></path><path d="M939.43 675.72C939.43 675.63 939.43 675.63 939.43 675.72 967.61 665.52 986.05 659.77 1013.1 659.59 1020.66 659.59 1026.93 660.2 1030.06 661.25 1037.01 663.6 1037.01 670.84 1032.75 673.54 1032.67 673.54 1032.67 673.63 1032.75 673.63 1035.88 676.42 1039.19 683.3 1031.8 687.49 1031.8 687.49 1031.71 687.57 1031.8 687.57 1033.8 691.67 1034.06 698.82 1025.71 700.65 1025.71 700.65 1018.23 701.87 1015.97 702.31 1015.88 702.31 1015.88 702.48 1015.97 702.48 1019.1 702.92 1032.14 705.62 1029.36 711.98 1027.62 716.17 1008.4 717.21 1007.62 717.21 1007.18 717.56 996.75 724.36 982.92 724.36 980.74 724.36 977.61 724.1 975.79 723.75 975.79 723.75 975.79 723.75 975.7 723.75 975.35 723.92 972.48 726.1 967.44 730.11 965.26 731.77 959.35 736.56 957.44 738.13 957.35 738.13 957.35 738.13 957.35 738.13 956.48 736.21 941.09 708.76 940.74 708.15L939.43 675.72Z" fill="#a56250" opacity="1" stroke-width="4" stroke="none"></path><path d="M788.46 499.47L816.38 470.53C829.08 455.19 850.04 440.02 877.95 434.35 901.61 428.34 916.57 442.11 922.48 450.22 928.22 458.15 932.92 489.36 933.09 490.32 932.83 490.93 925.96 505.13 922.48 511.93V512.02C926.92 517.16 927.27 524.31 916.31 523.44 916.31 523.44 916.22 523.44 916.22 523.53 906.83 550.55 887.26 555.08 869 540.96H868.91C868.47 541.48 865.34 545.32 862.99 548.19 862.65 548.54 862.39 548.98 862.12 549.24 861.17 550.37 860.47 551.25 860.3 551.51H860.21L788.55 499.56C788.37 499.56 788.37 499.56 788.46 499.47Z" fill="#a56250" opacity="1" stroke-width="4" stroke="none"></path><path d="M870.47 777.1C858.12 777.1 840.21 771.17 825.42 743.01 817.07 727.15 813.33 711.02 812.9 709.1 812.9 709.02 812.81 709.02 812.73 709.1L793.77 736.04H793.68L676.7 721.22C676.62 721.22 676.62 721.13 676.62 721.13 678.62 715.12 687.05 687.92 696.27 657.59 707.06 622.11 718.88 582.45 722.62 567.89 723.58 566.85 786.37 501.73 788.29 499.73H788.37C790.55 501.21 859.43 547.24 862.04 549.24 862.04 549.24 862.12 549.33 862.04 549.33 861.34 550.29 856.21 557.78 855.6 558.65 855.6 558.74 855.6 558.74 855.6 558.74 866.73 563.27 889.09 580.01 891.26 599.8 895.43 626.73 897.26 689.75 897.35 693.07 897.35 693.15 897.44 693.15 897.44 693.15 898.39 692.72 904.65 689.84 913.61 686.01 920.83 682.95 929.79 679.21 939.18 675.63 939.27 675.63 939.27 675.63 939.27 675.72L957.1 738.22V738.31C913.87 769.69 889.35 776.05 870.47 777.1Z" fill="#000000" opacity="1" stroke-width="4" stroke="none"></path><path d="M947.88 449.17C943.53 448.13 938.49 448.13 933.01 449.43H932.92C928.48 440.72 911.87 425.11 890.22 423.37 893.61 420.76 896.39 416.75 898.48 411.6 898.83 410.82 899.17 409.95 899.44 409.08 907.44 385.89 891.61 343.7 867.17 347.88 851.08 351.89 846.38 372.03 849.78 391.03 852.47 406.2 860.39 420.58 871.78 425.38 848.82 432.52 828.73 455.01 818.47 467.65 817.6 468.61 816.9 469.57 816.29 470.35H816.2C814.73 469.31 788.46 450.31 757.15 450.39 753.32 450.39 749.58 450.65 745.93 451.09 717.32 455.1 697.58 474.36 692.62 491.27 686.62 507.4 688.18 522.57 688.27 523.7 688.27 523.7 688.27 523.79 688.18 523.79 687.31 524.05 677.66 526.93 668.01 535.56 659.57 542.96 654.26 551.86 651.05 560.75 647.83 569.64 646.61 578.53 646.44 585.85 644 624.64 674.96 650.79 696.45 657.41 696.53 657.41 696.53 657.41 696.53 657.33 696.97 656.28 701.92 643.56 706.71 631.87 709.06 626.21 711.32 620.72 712.88 617.06L712.97 616.97C749.24 621.76 780.55 609.12 797.68 591.6 810.55 578.79 818.9 559.61 820.55 548.72 820.55 548.72 820.55 548.63 820.64 548.63 859.86 541.66 860.65 501.3 860.21 499.64 855.43 494.5 852.04 482.99 854.21 474.71 855.86 466.26 862.56 459.89 870.74 460.07 884.04 459.81 891.96 476.46 890.83 485.43V485.52C891.52 486.04 911.7 492.58 928.14 492.67 941.96 492.67 963.79 485.7 963.62 467.65 962.92 458.06 956.92 451.26 947.88 449.17Z" fill="#231f20" opacity="1" stroke-width="4" stroke="none"></path><path d="M879.51 427.12C865.16 427.12 853.25 410.99 849.77 391.38 849.77 391.29 849.85 391.21 849.94 391.29 853.33 395.04 856.9 398.53 861.07 401.23 873.07 408.9 886.56 412.56 899.34 409.08 899.43 409.08 899.43 409.16 899.43 409.16 895.51 419.8 889.08 427.12 879.51 427.12Z" fill="#000000" opacity="0.3" stroke-width="4" stroke="none"></path><path d="M691.66 607.21C699.32 613.13 708.53 616.01 712.62 617.06 712.71 617.06 712.71 617.14 712.71 617.14 710.71 621.76 709.32 625.08 706.53 631.87 706.53 631.96 706.45 631.96 706.36 631.96 696.62 625.69 691.84 609.3 691.49 607.29 691.49 607.21 691.57 607.21 691.66 607.21Z" fill="#000000" opacity="0.3" stroke-width="4" stroke="none"></path><path d="M672.35 828.96C664.61 809.17 665.05 785.9 667.05 765.68 667.05 765.59 667.14 765.59 667.14 765.59 669.05 765.85 704.01 770.64 705.93 770.91 706.01 770.91 706.01 770.99 706.01 770.99L699.23 805.51C694.79 831.66 672.53 828.96 672.53 828.96H672.35Z" fill="#000000" opacity="1" stroke-width="4" stroke="none"></path><path d="M767.15 773.52C772.02 751.03 765.76 733.51 765.33 732.47V732.38C796.29 702.13 803.33 663.17 804.29 656.98 804.29 656.89 804.46 656.89 804.46 656.98 805.59 678.16 812.55 707.71 812.81 708.93V709.02L767.33 773.61C767.24 773.7 767.15 773.61 767.15 773.52Z" fill="#000000" opacity="0.3" stroke-width="4" stroke="none"></path><path d="M793.67 736.04C780.89 753.56 767.23 773.61 767.23 773.61" stroke="#000000" stroke-width="4" stroke-linecap="round" stroke-linejoin="round" opacity="1" fill="none"></path><path d="M868.99 477.07L873.34 488.4" stroke="#000000" stroke-width="4" stroke-linecap="round" stroke-linejoin="round" opacity="1" fill="none"></path><path d="M906.83 523C904.04 521.35 900.83 521.17 897.78 522.04" stroke="#000000" stroke-width="4" stroke-linecap="round" stroke-linejoin="round" opacity="1" fill="none"></path><path d="M912.57 501.73C916.22 501.82 916.22 507.23 912.57 507.31 908.92 507.23 908.92 501.82 912.57 501.73Z" fill="#231f20" opacity="1" stroke-width="4" stroke="none"></path><path d="M863.26 562.75C858.91 560.05 855.69 558.65 855.69 558.65" stroke="#000000" stroke-width="4" stroke-linecap="round" stroke-linejoin="round" opacity="1" fill="none"></path><path d="M1032.76 673.71C1020.5 673.71 1005.8 675.55 1005.8 675.55" stroke="#000000" stroke-width="4" stroke-linecap="round" stroke-linejoin="round" opacity="1" fill="none"></path><path d="M1031.81 687.57C1023.98 687.57 1007.54 689.23 1007.54 689.23" stroke="#000000" stroke-width="4" stroke-linecap="round" stroke-linejoin="round" opacity="1" fill="none"></path><path d="M1015.88 702.39C1012.92 702.48 1010.58 702.83 1007.71 703.44" stroke="#000000" stroke-width="4" stroke-linecap="round" stroke-linejoin="round" opacity="1" fill="none"></path><path d="M897.52 693.15L897.78 714.33" stroke="#000000" stroke-width="4" stroke-linecap="round" stroke-linejoin="round" opacity="1" fill="none"></path><path d="M712.62 617.14C701.4 614.09 691.66 607.29 691.66 607.29" stroke="#000000" stroke-width="4" stroke-linecap="round" stroke-linejoin="round" opacity="1" fill="none"></path><path d="M897.52 693.24C898.13 692.89 904.65 690.02 913.52 686.18 913.61 686.18 913.7 686.27 913.61 686.27L897.96 714.42C897.96 714.51 897.78 714.51 897.78 714.42L897.52 693.24C897.44 693.24 897.44 693.24 897.52 693.24Z" fill="#000000" opacity="0.3" stroke-width="4" stroke="none"></path><path d="M858.82 530.06C861.69 535.21 868.3 540.26 869 540.79V540.87L863.17 548.02C863.08 548.11 862.99 548.02 862.99 548.02L858.65 530.15C858.65 530.06 858.73 529.98 858.82 530.06Z" fill="#000000" opacity="0.3" stroke-width="4" stroke="none"></path><path d="M650.96 560.66C661.83 531.81 686.27 524.48 688.01 523.96 688.1 523.96 688.1 523.96 688.1 524.05 688.27 525.53 691.31 544.01 701.58 554.38 701.66 554.47 701.58 554.56 701.49 554.56 677.66 548.63 653.39 559.61 651.05 560.75 651.05 560.83 650.96 560.75 650.96 560.66Z" fill="#000000" opacity="0.3" stroke-width="4" stroke="none"></path><path d="M793.15 497.9C782.71 460.94 750.71 452.31 746.27 451.26 746.18 451.26 746.18 451.09 746.27 451.09 781.58 446.12 814.11 468.7 816.02 470.44V470.53C814.89 471.84 794.89 495.98 793.32 497.9 793.32 497.99 793.24 497.99 793.15 497.9Z" fill="#000000" opacity="0.3" stroke-width="4" stroke="none"></path><path d="M932.91 449.52C932.91 449.43 932.91 449.43 933 449.43 939 448.04 943.61 448.21 947.78 449.17 947.87 449.17 947.87 449.26 947.87 449.26 946.13 458.67 941.43 466.95 939.96 469.4 939.78 469.66 939.35 469.66 939.26 469.31 938.48 466.26 935.52 455.27 932.91 449.52Z" fill="#000000" opacity="0.3" stroke-width="4" stroke="none"></path><path d="M869.08 540.96C861.34 534.86 858.65 530.06 858.65 530.06" stroke="#000000" stroke-width="4" stroke-linecap="round" stroke-linejoin="round" opacity="1" fill="none"></path><path d="M812.9 708.93C806.99 684 806.38 674.76 804.55 656.98" stroke="#000000" stroke-width="4" stroke-linecap="round" stroke-linejoin="round" opacity="1" fill="none"></path><path d="M816.02 470.62L808.28 480.03" stroke="#000000" stroke-width="4" stroke-linecap="round" stroke-linejoin="round" opacity="1" fill="none"></path><path d="M688.09 524.05C690.78 540.52 696 546.19 701.57 554.38" stroke="#000000" stroke-width="4" stroke-linecap="round" stroke-linejoin="round" opacity="1" fill="none"></path><path d="M932.91 449.52C934.91 454.58 936.91 459.72 939.26 469.31" stroke="#000000" stroke-width="4" stroke-linecap="round" stroke-linejoin="round" opacity="1" fill="none"></path></g></svg>