<svg xmlns="http://www.w3.org/2000/svg" height="1225" width="1634" version="1.1" xmlns:xlink="http://www.w3.org/1999/xlink" xmlns:svgjs="http://svgjs.com/svgjs"><rect fill="#ffffff" width="1634" height="1225"></rect><g><path d="M1137.78 809.14L1186.25 844.16 1185.22 719.87 1298.59 793.74 1253.3 693.35 1359.95 674.11" stroke="#231f20" stroke-width="4" stroke-linecap="round" stroke-linejoin="round" opacity="1" fill="none"></path></g><g><path d="M528.91 592.78L441.48 546.39 398.15 620.31 343.6 512.23 273.92 571.54" stroke="#231f20" stroke-width="4" stroke-linecap="round" stroke-linejoin="round" opacity="1" fill="none"></path></g><g><path d="M413.21 890.77H346.62V957.36H413.21V890.77Z" fill="#000000" opacity="1" stroke-width="4" stroke="none"></path><path d="M380.01 940.94C389.33 940.94 396.89 933.38 396.89 924.06 396.89 914.74 389.33 907.18 380.01 907.18 370.69 907.18 363.13 914.74 363.13 924.06 363.13 933.38 370.69 940.94 380.01 940.94Z" fill="#000000" opacity="1" stroke-width="4" stroke="none"></path><path d="M561.21 698.31V884.29C561.22 889.55 560.18 894.76 558.17 899.62 556.16 904.48 553.21 908.9 549.49 912.62 545.77 916.34 541.35 919.29 536.49 921.3 531.63 923.31 526.42 924.35 521.17 924.34H380.2" stroke="#000000" stroke-width="4" stroke-linecap="round" stroke-linejoin="round" opacity="1" fill="none"></path></g><g><path d="M1123.09 436.63C1162.59 436.63 1194.61 404.6 1194.61 365.11 1194.61 325.6 1162.59 293.59 1123.09 293.59 1083.59 293.59 1051.58 325.6 1051.58 365.11 1051.58 404.6 1083.59 436.63 1123.09 436.63Z" fill="#000000" opacity="0.3" stroke-width="4" stroke="none"></path><path d="M1123.09 423.27C1162.59 423.27 1194.61 391.25 1194.61 351.75 1194.61 312.25 1162.59 280.23 1123.09 280.23 1083.59 280.23 1051.58 312.25 1051.58 351.75 1051.58 391.25 1083.59 423.27 1123.09 423.27Z" fill="#000000" opacity="1" stroke-width="4" stroke="none"></path><path d="M1123.09 398.99C1149.19 398.99 1170.34 377.84 1170.34 351.75 1170.34 325.65 1149.19 304.5 1123.09 304.5 1097 304.5 1075.85 325.65 1075.85 351.75 1075.85 377.84 1097 398.99 1123.09 398.99Z" fill="#000000" opacity="1" stroke-width="4" stroke="none"></path><path d="M1122.66 331.3V352.19L1144.42 373.95" stroke="#000000" stroke-width="4" stroke-linecap="round" stroke-linejoin="round" opacity="1" fill="none"></path><path d="M1177.54 339.35C1114.51 335.45 1122.49 258.73 1160.28 227 1160.37 226.91 1160.46 227 1160.46 227.09 1161.84 239.22 1155 251.45 1161.5 262.02 1161.5 262.11 1161.67 262.11 1161.67 262.02 1163.32 249.63 1167.39 243.65 1172.16 236.8 1176.32 230.64 1181.09 223.79 1184.73 210.7 1184.73 210.62 1184.82 210.62 1184.9 210.7 1197.39 228.22 1196.43 242.43 1195.39 256.04 1194.7 266.27 1193.92 275.98 1199.03 286.38 1199.03 286.47 1199.12 286.47 1199.21 286.38 1199.99 285.17 1206.58 274.94 1204.58 252.58 1204.58 252.49 1204.67 252.49 1204.76 252.49 1240.56 279.1 1224.52 339.01 1177.54 339.35Z" fill="#8a2ce2" opacity="1" stroke-width="4" stroke="none"></path></g><g><path d="M729.92 246.64C800.98 235.81 899.6 239.45 960.48 320.79 1021.37 402.13 968.98 452.46 881.67 385.41 794.35 318.36 724.59 205.37 748.41 186.5 772.22 167.64 886.05 248.04 876.72 327.7 867.38 407.36 737.01 424.07 724.41 325.09 716.56 263.27 807.61 215.08 934.8 249.16 1061.99 283.25 956.84 434.72 862.24 402.97 767.64 371.22 751.86 226.1 826.29 189.96 893.06 157.37 959.74 259.06 913.88 335.92" stroke="#231f20" stroke-width="4" stroke-linecap="round" stroke-linejoin="round" opacity="1" fill="none"></path></g><g><path d="M507.59 287.95H592.96C598.79 287.95 604.38 290.26 608.51 294.38 612.63 298.49 614.96 304.07 614.99 309.9V355.76C614.98 361.59 612.67 367.18 608.56 371.31 604.45 375.44 598.87 377.77 593.04 377.79H507.59C501.76 377.79 496.17 375.48 492.05 371.36 487.92 367.25 485.59 361.67 485.57 355.84V309.97C485.56 307.08 486.13 304.22 487.24 301.54 488.34 298.87 489.96 296.44 492.01 294.39 494.05 292.35 496.48 290.73 499.16 289.62 501.83 288.51 504.7 287.95 507.59 287.95Z" fill="#000000" opacity="1" stroke-width="4" stroke="none"></path><path d="M608.17 371.28L550.28 325.04 492.38 371.28" stroke="#000000" stroke-width="4" stroke-linecap="round" stroke-linejoin="round" opacity="1" fill="none"></path><path d="M550.2 359.24L608.1 294.01H492.38L550.2 359.24Z" fill="#000000" opacity="0.3" stroke-width="4" stroke="none"></path><path d="M550.2 340.25L608.1 294.01C603.98 290.12 598.54 287.96 592.89 287.95H507.59C501.94 287.97 496.5 290.13 492.38 294.01L550.2 340.25Z" fill="#000000" opacity="1" stroke-width="4" stroke="none"></path><path d="M492.38 294.01L550.2 340.25 608.1 294.01" stroke="#000000" stroke-width="4" stroke-linecap="round" stroke-linejoin="round" opacity="1" fill="none"></path><path d="M587.29 298.92C587.37 290.41 589.23 282.01 592.75 274.25 596.27 266.5 601.37 259.56 607.72 253.89 608.48 263.73 603.94 271.3 608.48 278.11 610.75 261.46 619.07 261.46 624.37 242.54 639.51 263.73 625.88 278.11 634.21 294.76 634.21 294.76 639.51 287.95 637.99 271.3 645.56 276.6 651.62 287.27 651.62 298.92 651.62 307.46 648.23 315.64 642.2 321.67 636.16 327.7 627.98 331.09 619.45 331.09 610.92 331.09 602.74 327.7 596.71 321.67 590.67 315.64 587.29 307.46 587.29 298.92Z" fill="#000000" opacity="1" stroke-width="4" stroke="none"></path></g><g><path d="M932.78 1041.07V1031.84C932.78 1020.48 923.54 1011.25 912.19 1011.25H794.64C783.29 1011.25 774.05 1020.48 774.05 1031.84V1041.07" stroke="#231f20" stroke-width="4" stroke-linecap="round" stroke-linejoin="round" opacity="1" fill="none"></path><path d="M937.11 815.1H769.73C762.61 815.1 756.74 820.97 756.74 828.09 756.74 835.21 762.51 841.08 769.73 841.08H824.27V861.28H840.43V989.12H824.08V1011.25H882.28V989.12H866.4V861.28H882.47V841.08H937.11C944.23 841.08 950.09 835.21 950.09 828.09 950.09 820.97 944.32 815.1 937.11 815.1Z" fill="#231f20" opacity="1" stroke-width="4" stroke="none"></path><path d="M840.43 861.28H866.4" stroke="#6b5f62" stroke-width="4" stroke-linecap="round" stroke-linejoin="round" opacity="1" fill="none"></path><path d="M840.43 989.12H866.4" stroke="#6b5f62" stroke-width="4" stroke-linecap="round" stroke-linejoin="round" opacity="1" fill="none"></path><path d="M853.42 1046.84V1011.63" stroke="#231f20" stroke-width="4" stroke-linecap="round" stroke-linejoin="round" opacity="1" fill="none"></path><path d="M932.49 1063.2C941.52 1063.2 948.84 1055.88 948.84 1046.84 948.84 1037.81 941.52 1030.49 932.49 1030.49 923.46 1030.49 916.14 1037.81 916.14 1046.84 916.14 1055.88 923.46 1063.2 932.49 1063.2Z" fill="#8a2ce2" opacity="1" stroke-width="4" stroke="none"></path><path d="M932.49 1051.65C935.15 1051.65 937.3 1049.5 937.3 1046.84 937.3 1044.19 935.15 1042.03 932.49 1042.03 929.84 1042.03 927.68 1044.19 927.68 1046.84 927.68 1049.5 929.84 1051.65 932.49 1051.65Z" fill="#231f20" opacity="1" stroke-width="4" stroke="none"></path><path d="M853.22 1063.2C862.26 1063.2 869.58 1055.88 869.58 1046.84 869.58 1037.81 862.26 1030.49 853.22 1030.49 844.19 1030.49 836.87 1037.81 836.87 1046.84 836.87 1055.88 844.19 1063.2 853.22 1063.2Z" fill="#8a2ce2" opacity="1" stroke-width="4" stroke="none"></path><path d="M853.51 1051.65C856.17 1051.65 858.32 1049.5 858.32 1046.84 858.32 1044.19 856.17 1042.03 853.51 1042.03 850.86 1042.03 848.7 1044.19 848.7 1046.84 848.7 1049.5 850.86 1051.65 853.51 1051.65Z" fill="#231f20" opacity="1" stroke-width="4" stroke="none"></path><path d="M773.67 1063.2C782.7 1063.2 790.02 1055.88 790.02 1046.84 790.02 1037.81 782.7 1030.49 773.67 1030.49 764.64 1030.49 757.32 1037.81 757.32 1046.84 757.32 1055.88 764.64 1063.2 773.67 1063.2Z" fill="#8a2ce2" opacity="1" stroke-width="4" stroke="none"></path><path d="M773.67 1051.65C776.32 1051.65 778.48 1049.5 778.48 1046.84 778.48 1044.19 776.32 1042.03 773.67 1042.03 771.01 1042.03 768.86 1044.19 768.86 1046.84 768.86 1049.5 771.01 1051.65 773.67 1051.65Z" fill="#231f20" opacity="1" stroke-width="4" stroke="none"></path></g><g><path d="M784.2 815.29C784.29 815.29 784.29 815.29 784.2 815.29 788.92 805.68 793.47 793.5 796.64 780.71 798.44 773.25 799.64 763.73 800.93 755.23 800.93 755.15 801.02 755.23 800.93 755.23L716.68 737.99C716.59 737.99 716.59 737.99 716.59 738.07 714.02 765.19 697.55 775.82 683.05 785.18 668.98 792.55 664.34 806.97 665.55 815.2 665.55 815.2 665.55 815.29 665.63 815.29 669.58 815.29 781.54 815.29 784.2 815.29Z" fill="#ffcfc2" opacity="1" stroke-width="4" stroke="none"></path><path d="M789.26 804.14C792.09 797.44 794.67 788.95 796.64 780.89 796.64 780.8 796.64 780.8 796.55 780.8L727.83 791.35C727.75 791.35 727.75 791.27 727.75 791.27L735.13 773.16C738.99 763.9 731.69 753 721.66 753.26 721.66 753.26 714.02 753.26 713.33 753.26 713.33 753.26 713.25 753.26 713.25 753.35 707.16 770.08 694.2 778.23 682.88 785.52 681.93 786.03 681.16 786.63 680.39 787.15 673.7 790.92 667.86 799.68 666.83 804.22 666.83 804.31 666.83 804.31 666.92 804.31 670.01 804.39 722 808.17 757.17 808.17 775.28 808 788.58 804.39 789.26 804.14Z" fill="#000000" opacity="1" stroke-width="4" stroke="none"></path><path d="M784.47 815.2C786.1 811.86 787.64 808.17 789.18 804.22 789.18 804.14 789.18 804.14 789.1 804.14H666.93C666.93 804.14 666.84 804.14 666.84 804.22 665.55 807.23 665.38 813.83 665.64 815.29 665.64 815.29 665.64 815.38 665.73 815.38 669.67 815.29 781.72 815.29 784.47 815.2 784.47 815.29 784.47 815.29 784.47 815.2Z" fill="#8a2ce2" opacity="1" stroke-width="4" stroke="none"></path><path d="M742.93 780.63C744.99 771.88 746.62 762.78 747.74 754.03 747.74 753.95 747.74 753.95 747.65 753.95L676.7 735.59 663.49 734.3C663.4 734.3 663.4 734.3 663.4 734.39 663.14 741.25 661.94 747.25 659.88 753.09 659.88 753.09 659.88 753.09 659.88 753.17L670.09 801.73C670.09 801.82 670.18 801.82 670.18 801.82L742.93 780.63C742.93 780.71 742.93 780.71 742.93 780.63Z" fill="#ffcfc2" opacity="1" stroke-width="4" stroke="none"></path><path d="M934.86 658.03V657.94C933.91 656.48 912.55 626.2 886.12 593.68 841.17 538 816.29 518.01 803.33 511.06 769.61 492.1 727.58 505.23 711.36 541.95 694.63 578.41 711.53 670.21 716.51 722.55 716.94 727.78 716.94 732.93 716.51 738.07 716.51 738.07 716.51 738.16 716.59 738.16L800.5 757.81C800.59 757.81 800.59 757.81 800.59 757.72 802.9 742.02 804.1 726.06 804.19 710.28 804.19 710.19 804.28 710.19 804.36 710.28 812.51 732.76 827.7 757.72 841.94 773.59 841.94 773.59 842.03 773.59 842.11 773.59 845.2 769.48 932.8 660.52 934.86 658.03Z" fill="#000000" opacity="1" stroke-width="4" stroke="none"></path><path d="M800.51 757.55C802.83 741.85 804.11 725.89 804.11 709.93 804.11 709.85 804.28 709.85 804.28 709.93 805.31 712.59 806.17 714.74 806.34 712.85 805.49 700.15 781.12 615.22 754.87 616.59 709.22 618.56 714.8 696.04 716.26 722.46 716.69 727.69 716.69 732.84 716.26 737.99 716.26 737.99 716.26 738.07 716.34 738.07L748.86 745.71 800.42 757.64C800.51 757.64 800.51 757.64 800.51 757.55Z" fill="#000000" opacity="0.3" stroke-width="4" stroke="none"></path><path d="M904.83 815.29C947.04 816.49 985.99 788.52 1000.66 750 1003.92 741.34 999.72 716.88 999.54 716.03 999.8 715.43 1007.18 699.3 1005.89 687.63 1004.35 673.56 1001.17 658.97 996.54 644.04 996.54 644.04 996.54 643.96 996.46 643.96L940.6 641.21 881.66 657.94H881.58C879.43 655.03 794.67 534.91 750.05 511.06 716.34 492.1 674.3 505.23 658.08 541.95 639.64 582.53 661.6 678.71 663.49 734.21 663.49 734.21 663.49 734.3 663.57 734.3 664.86 734.64 687.94 739.96 709.56 745.02 728.43 749.4 746.36 753.6 747.74 753.95 747.82 753.95 747.82 753.95 747.82 753.86 749.88 739.45 750.91 724.61 750.91 710.11 750.91 710.02 751 710.02 751.08 710.11 779.74 782 824.61 820.78 904.83 815.29Z" fill="#000000" opacity="1" stroke-width="4" stroke="none"></path><path d="M735.82 804.05C738.57 796.76 741.05 788.87 742.86 780.8 742.86 780.71 742.86 780.71 742.77 780.71L674.48 791.27C674.39 791.27 674.39 791.18 674.39 791.18L681.77 773.08C685.63 763.81 678.34 752.92 668.3 753.17 668.3 753.17 660.58 753.17 659.89 753.17 659.89 753.17 659.81 753.17 659.81 753.26 653.71 769.99 637.67 778.14 626.26 785.43 625.32 785.95 624.54 786.55 623.77 787.06 617.08 790.84 611.33 799.68 610.39 804.14 610.39 804.22 610.39 804.22 610.47 804.22 612.53 804.31 630.55 808.77 665.73 808.77 688.63 808.77 734.1 804.39 735.82 804.05 735.82 804.14 735.82 804.14 735.82 804.05Z" fill="#000000" opacity="1" stroke-width="4" stroke="none"></path><path d="M731.09 815.2C732.72 811.86 734.18 808.17 735.73 804.22 735.73 804.14 735.73 804.14 735.64 804.14L610.47 804.22C610.47 804.22 610.38 804.22 610.38 804.31 609.09 807.48 608.92 814.09 609.26 815.29 609.26 815.29 609.26 815.38 609.35 815.38 613.21 815.29 728.35 815.29 731.09 815.2 731.09 815.29 731.09 815.29 731.09 815.2Z" fill="#8a2ce2" opacity="1" stroke-width="4" stroke="none"></path><path d="M750.92 709.59C731.1 660.69 706.99 573.01 706.99 573.01" stroke="#000000" stroke-width="4" stroke-linecap="round" stroke-linejoin="round" opacity="1" fill="none"></path><path d="M747.75 753.86C749.8 739.28 750.83 724.26 750.92 709.59 750.58 708.65 729.99 660.95 707.16 573.09 707.16 573.01 707.08 573.01 706.99 573.09 697.81 581.33 703.56 612.64 705.62 630.83 708.45 653.48 712.23 684.62 709.48 744.94 709.48 744.94 709.48 745.02 709.57 745.02 711.28 745.45 745.69 753.35 747.75 753.86 747.75 753.95 747.75 753.86 747.75 753.86Z" fill="#000000" opacity="0.3" stroke-width="4" stroke="none"></path><path d="M737.19 599.17C737.19 599.09 737.19 599.09 737.19 599.17 709.4 589.14 691.21 583.47 664.53 583.3 657.06 583.3 650.88 583.9 647.8 584.93 640.93 587.25 640.93 594.37 645.14 597.03 645.22 597.03 645.22 597.11 645.14 597.11 642.05 599.86 638.79 606.64 646.08 610.76 646.08 610.76 646.17 610.84 646.08 610.84 644.11 614.87 643.85 621.91 652.08 623.71 652.08 623.71 659.46 624.91 661.69 625.34 661.78 625.34 661.78 625.51 661.69 625.51 658.61 625.94 645.74 628.6 648.48 634.86 650.2 638.98 669.16 640.01 669.93 640.01 670.36 640.35 680.65 647.05 694.3 647.05 696.44 647.05 699.53 646.79 701.33 646.45 701.33 646.45 701.33 646.45 701.42 646.45 701.76 646.62 704.59 648.76 709.57 652.71 711.71 654.34 717.55 659.06 719.43 660.6 719.52 660.6 719.52 660.6 719.52 660.6 720.38 658.71 735.56 631.69 735.91 631.09L737.19 599.17Z" fill="#ffcfc2" opacity="1" stroke-width="4" stroke="none"></path><path d="M886.12 425.7L858.58 397.21C846.06 382.11 825.38 367.19 797.84 361.61 774.51 355.69 759.75 369.24 753.91 377.22 748.25 385.03 743.62 415.74 743.45 416.69 743.7 417.29 750.48 431.27 753.91 437.97V438.05C749.54 443.11 749.2 450.15 760.01 449.29 760.01 449.29 760.09 449.29 760.09 449.38 769.36 475.97 788.66 480.43 806.68 466.54H806.76C807.19 467.05 810.28 470.82 812.6 473.66 812.94 474 813.2 474.43 813.46 474.69 814.4 475.8 815.09 476.66 815.26 476.92H815.34L886.04 425.78C886.21 425.78 886.21 425.78 886.12 425.7Z" fill="#ffcfc2" opacity="1" stroke-width="4" stroke="none"></path><path d="M805.22 698.95C817.4 698.95 835.08 693.12 849.66 665.41 857.9 649.79 861.59 633.92 862.02 632.03 862.02 631.95 862.1 631.95 862.19 632.03L880.89 658.54H880.98L996.37 643.96C996.46 643.96 996.46 643.87 996.46 643.87 994.48 637.95 986.16 611.18 977.07 581.33 966.43 546.41 954.76 507.37 951.07 493.05 950.13 492.02 888.18 427.93 886.3 425.95H886.21C884.06 427.41 816.12 472.71 813.54 474.69 813.54 474.69 813.46 474.77 813.54 474.77 814.23 475.72 819.29 483.09 819.89 483.95 819.89 484.04 819.89 484.04 819.89 484.04 808.91 488.5 786.86 504.97 784.71 524.45 780.6 550.96 778.79 612.99 778.71 616.25 778.71 616.33 778.62 616.33 778.62 616.33 777.68 615.9 771.5 613.07 762.67 609.3 755.54 606.29 746.71 602.61 737.44 599.09 737.36 599.09 737.36 599.09 737.36 599.17L719.77 660.69V660.77C762.41 691.66 786.6 697.92 805.22 698.95Z" fill="#000000" opacity="1" stroke-width="4" stroke="none"></path><path d="M728.86 376.19C733.15 375.16 738.13 375.16 743.53 376.45H743.62C747.99 367.87 764.38 352.51 785.74 350.8 782.4 348.22 779.65 344.28 777.59 339.22 777.25 338.44 776.91 337.59 776.65 336.73 768.76 313.91 784.37 272.38 808.48 276.5 824.35 280.45 828.98 300.27 825.64 318.97 822.98 333.9 815.17 348.05 803.93 352.77 826.58 359.81 846.4 381.94 856.52 394.38 857.38 395.33 858.07 396.27 858.67 397.04H858.76C860.21 396.01 886.12 377.31 917.01 377.39 920.78 377.39 924.47 377.65 928.08 378.08 956.3 382.03 975.78 400.99 980.67 417.63 986.59 433.5 985.04 448.43 984.96 449.55 984.96 449.55 984.96 449.63 985.04 449.63 985.9 449.89 995.43 452.72 1004.95 461.22 1013.27 468.51 1018.5 477.26 1021.68 486.01 1024.85 494.76 1026.05 503.51 1026.23 510.72 1028.63 548.9 998.09 574.64 976.89 581.16 976.81 581.16 976.81 581.16 976.81 581.07 976.38 580.04 971.49 567.52 966.77 556.02 964.45 550.44 962.22 545.04 960.68 541.43L960.59 541.35C924.82 546.07 893.93 533.63 877.03 516.38 864.33 503.77 856.1 484.9 854.47 474.17 854.47 474.17 854.47 474.09 854.38 474.09 815.69 467.22 814.91 427.5 815.34 425.87 820.06 420.81 823.41 409.48 821.26 401.33 819.63 393.01 813.03 386.75 804.96 386.92 791.84 386.66 784.03 403.05 785.14 411.88V411.97C784.46 412.48 764.55 418.92 748.34 419.01 734.7 419.01 713.16 412.14 713.33 394.38 714.02 384.94 719.94 378.25 728.86 376.19Z" fill="#8a2ce2" opacity="1" stroke-width="4" stroke="none"></path><path d="M796.31 354.49C810.46 354.49 822.22 338.62 825.65 319.31 825.65 319.23 825.56 319.14 825.48 319.23 822.13 322.92 818.61 326.35 814.49 329.01 802.65 336.56 789.36 340.16 776.74 336.73 776.66 336.73 776.66 336.81 776.66 336.81 780.52 347.28 786.87 354.49 796.31 354.49Z" fill="#43374f" opacity="0.3" stroke-width="4" stroke="none"></path><path d="M981.61 531.74C974.06 537.57 964.97 540.4 960.94 541.43 960.85 541.43 960.85 541.52 960.85 541.52 962.82 546.07 964.2 549.33 966.94 556.02 966.94 556.1 967.03 556.1 967.11 556.1 976.72 549.93 981.44 533.8 981.78 531.82 981.78 531.74 981.7 531.74 981.61 531.74Z" fill="#43374f" opacity="0.3" stroke-width="4" stroke="none"></path><path d="M1000.66 750C1008.3 730.53 1007.87 707.62 1005.89 687.71 1005.89 687.63 1005.81 687.63 1005.81 687.63 1003.92 687.89 969.43 692.6 967.54 692.86 967.46 692.86 967.46 692.95 967.46 692.95L974.15 726.92C978.52 752.66 1000.49 750 1000.49 750H1000.66Z" fill="#000000" opacity="1" stroke-width="4" stroke="none"></path><path d="M907.14 695.44C902.34 673.3 908.52 656.06 908.95 655.03V654.94C878.4 625.17 871.45 586.82 870.51 580.73 870.51 580.64 870.34 580.64 870.34 580.73 869.22 601.58 862.36 630.66 862.1 631.86V631.95L906.97 695.52C907.06 695.61 907.14 695.52 907.14 695.44Z" fill="#000000" opacity="0.3" stroke-width="4" stroke="none"></path><path d="M880.98 658.54C893.6 675.79 907.07 695.52 907.07 695.52" stroke="#000000" stroke-width="4" stroke-linecap="round" stroke-linejoin="round" opacity="1" fill="none"></path><path d="M806.69 403.65L802.4 414.8" stroke="#a93f23" stroke-width="4" stroke-linecap="round" stroke-linejoin="round" opacity="1" fill="none"></path><path d="M769.36 448.86C772.1 447.23 775.28 447.06 778.28 447.92" stroke="#a93f23" stroke-width="4" stroke-linecap="round" stroke-linejoin="round" opacity="1" fill="none"></path><path d="M763.7 427.93C760.09 428.01 760.09 433.33 763.7 433.42 767.3 433.33 767.3 428.01 763.7 427.93Z" fill="#000000" opacity="1" stroke-width="4" stroke="none"></path><path d="M812.34 487.98C816.63 485.32 819.8 483.95 819.8 483.95" stroke="#000000" stroke-width="4" stroke-linecap="round" stroke-linejoin="round" opacity="1" fill="none"></path><path d="M645.13 597.2C657.22 597.2 671.72 599 671.72 599" stroke="#a93f23" stroke-width="4" stroke-linecap="round" stroke-linejoin="round" opacity="1" fill="none"></path><path d="M646.07 610.84C653.79 610.84 670.01 612.47 670.01 612.47" stroke="#a93f23" stroke-width="4" stroke-linecap="round" stroke-linejoin="round" opacity="1" fill="none"></path><path d="M661.78 625.43C664.7 625.51 667.01 625.86 669.84 626.46" stroke="#a93f23" stroke-width="4" stroke-linecap="round" stroke-linejoin="round" opacity="1" fill="none"></path><path d="M778.54 616.33L778.28 637.18" stroke="#000000" stroke-width="4" stroke-linecap="round" stroke-linejoin="round" opacity="1" fill="none"></path><path d="M960.94 541.52C972 538.52 981.61 531.82 981.61 531.82" stroke="#000000" stroke-width="4" stroke-linecap="round" stroke-linejoin="round" opacity="1" fill="none"></path><path d="M778.54 616.42C777.94 616.08 771.5 613.24 762.75 609.47 762.67 609.47 762.58 609.55 762.67 609.55L778.11 637.27C778.11 637.35 778.28 637.35 778.28 637.27L778.54 616.42C778.62 616.42 778.62 616.42 778.54 616.42Z" fill="#000000" opacity="0.3" stroke-width="4" stroke="none"></path><path d="M816.72 455.81C813.88 460.87 807.36 465.85 806.68 466.36V466.45L812.43 473.48C812.51 473.57 812.6 473.48 812.6 473.48L816.89 455.9C816.89 455.81 816.8 455.73 816.72 455.81Z" fill="#a93f23" opacity="0.3" stroke-width="4" stroke="none"></path><path d="M1021.76 485.92C1011.04 457.53 986.93 450.32 985.22 449.81 985.13 449.81 985.13 449.81 985.13 449.89 984.96 451.35 981.96 469.54 971.83 479.75 971.75 479.83 971.83 479.92 971.92 479.92 995.43 474.09 1019.36 484.9 1021.68 486.01 1021.68 486.1 1021.76 486.01 1021.76 485.92Z" fill="#43374f" opacity="0.3" stroke-width="4" stroke="none"></path><path d="M881.5 424.15C891.79 387.78 923.37 379.28 927.74 378.25 927.83 378.25 927.83 378.08 927.74 378.08 892.91 373.19 860.82 395.41 858.94 397.13V397.21C860.05 398.5 879.78 422.27 881.33 424.15 881.33 424.24 881.41 424.24 881.5 424.15Z" fill="#43374f" opacity="0.3" stroke-width="4" stroke="none"></path><path d="M743.63 376.54C743.63 376.45 743.63 376.45 743.54 376.45 737.62 375.08 733.07 375.25 728.96 376.19 728.87 376.19 728.87 376.28 728.87 376.28 730.59 385.55 735.22 393.7 736.68 396.1 736.85 396.36 737.28 396.36 737.36 396.01 738.14 393.01 741.05 382.2 743.63 376.54Z" fill="#43374f" opacity="0.3" stroke-width="4" stroke="none"></path><path d="M806.59 466.54C814.23 460.53 816.89 455.81 816.89 455.81" stroke="#a93f23" stroke-width="4" stroke-linecap="round" stroke-linejoin="round" opacity="1" fill="none"></path><path d="M862.02 631.86C867.85 607.32 868.45 598.23 870.25 580.73" stroke="#000000" stroke-width="4" stroke-linecap="round" stroke-linejoin="round" opacity="1" fill="none"></path><path d="M858.94 397.3L866.57 406.56" stroke="#000000" stroke-width="4" stroke-linecap="round" stroke-linejoin="round" opacity="1" fill="none"></path><path d="M985.14 449.89C982.48 466.11 977.33 471.68 971.84 479.75" stroke="#000000" stroke-width="4" stroke-linecap="round" stroke-linejoin="round" opacity="1" fill="none"></path><path d="M743.63 376.54C741.65 381.51 739.68 386.57 737.36 396.01" stroke="#000000" stroke-width="4" stroke-linecap="round" stroke-linejoin="round" opacity="1" fill="none"></path></g><g><path d="M1142.26 689.04H1117.04V1063.51H1142.26V689.04Z" fill="#231f20" opacity="1" stroke-width="4" stroke="none"></path><path d="M527.79 689.04H502.57V1063.51H527.79V689.04Z" fill="#231f20" opacity="1" stroke-width="4" stroke="none"></path><path d="M471.76 675.04H1174.01C1175.67 675.03 1177.31 675.35 1178.85 675.98 1180.38 676.61 1181.77 677.54 1182.94 678.71 1184.11 679.89 1185.04 681.28 1185.67 682.81 1186.3 684.34 1186.62 685.99 1186.62 687.64 1186.62 689.3 1186.3 690.94 1185.67 692.48 1185.04 694.01 1184.11 695.4 1182.94 696.57 1181.77 697.75 1180.38 698.67 1178.85 699.3 1177.31 699.93 1175.67 700.26 1174.01 700.25H471.76C470.1 700.26 468.46 699.93 466.93 699.3 465.39 698.67 464 697.75 462.83 696.57 461.66 695.4 460.73 694.01 460.1 692.48 459.47 690.94 459.14 689.3 459.15 687.64 459.14 685.99 459.47 684.34 460.1 682.81 460.73 681.28 461.66 679.89 462.83 678.71 464 677.54 465.39 676.61 466.93 675.98 468.46 675.35 470.1 675.03 471.76 675.04Z" fill="#231f20" opacity="1" stroke-width="4" stroke="none"></path></g><g><path d="M1164.21 1026.46L1154.66 908.77 1306.81 908.74 1297.22 1026.46H1164.21Z" fill="#5b5b5b" opacity="1" stroke-width="4" stroke="none"></path><path d="M1240.51 1045.11L1300.93 984.69" stroke="#000000" stroke-width="4" stroke-linecap="round" stroke-linejoin="round" opacity="1" fill="none"></path><path d="M1182.23 1045.11L1305.97 921.38" stroke="#000000" stroke-width="4" stroke-linecap="round" stroke-linejoin="round" opacity="1" fill="none"></path><path d="M1162.62 1006.45L1260.77 908.4" stroke="#000000" stroke-width="4" stroke-linecap="round" stroke-linejoin="round" opacity="1" fill="none"></path><path d="M1158.42 952.48L1201.66 909.24" stroke="#000000" stroke-width="4" stroke-linecap="round" stroke-linejoin="round" opacity="1" fill="none"></path><path d="M1221.08 1045.11L1160.57 984.6" stroke="#000000" stroke-width="4" stroke-linecap="round" stroke-linejoin="round" opacity="1" fill="none"></path><path d="M1279.26 1045.11L1155.25 921.1" stroke="#000000" stroke-width="4" stroke-linecap="round" stroke-linejoin="round" opacity="1" fill="none"></path><path d="M1298.78 1006.45L1201 908.58" stroke="#000000" stroke-width="4" stroke-linecap="round" stroke-linejoin="round" opacity="1" fill="none"></path><path d="M1303.35 952.76L1259.18 908.58" stroke="#000000" stroke-width="4" stroke-linecap="round" stroke-linejoin="round" opacity="1" fill="none"></path><path d="M1154.69 908.8L1152.98 888.23 1308.49 888.2 1306.84 908.8H1154.69Z" fill="#000000" opacity="1" stroke-width="4" stroke="none"></path><path d="M1167.29 1063.82L1164.18 1026.44 1297.19 1026.41 1294.23 1063.82H1167.29Z" fill="#000000" opacity="1" stroke-width="4" stroke="none"></path></g><g><path d="M1084.49 673.76L1084.46 527.59 1138.19 527.56 1138.22 673.76H1084.49Z" fill="#000000" opacity="1" stroke-width="4" stroke="none"></path><path d="M1084.49 673.76L1084.46 527.59 1138.32 673.76H1084.49Z" fill="#000000" opacity="0.3" stroke-width="4" stroke="none"></path><path d="M1111.39 656.37C1117.01 656.37 1121.56 651.81 1121.56 646.19 1121.56 640.57 1117.01 636.01 1111.39 636.01 1105.76 636.01 1101.21 640.57 1101.21 646.19 1101.21 651.81 1105.76 656.37 1111.39 656.37Z" fill="#000000" opacity="1" stroke-width="4" stroke="none"></path><path d="M1031.26 673.76L1031.23 527.59 1084.96 527.56 1084.99 673.76H1031.26Z" fill="#8a2ce2" opacity="1" stroke-width="4" stroke="none"></path><path d="M1031.26 673.76L1031.23 527.59 1085 673.76H1031.26Z" fill="#43374f" opacity="0.3" stroke-width="4" stroke="none"></path><path d="M1058.16 656.37C1063.78 656.37 1068.34 651.81 1068.34 646.19 1068.34 640.57 1063.78 636.01 1058.16 636.01 1052.53 636.01 1047.98 640.57 1047.98 646.19 1047.98 651.81 1052.53 656.37 1058.16 656.37Z" fill="#000000" opacity="1" stroke-width="4" stroke="none"></path><path d="M1084.49 528.52V673.74" stroke="#000000" stroke-width="4" stroke-linecap="round" stroke-linejoin="round" opacity="1" fill="none"></path></g><g><path d="M496.32 639.27C484.77 639.27 473.87 629.86 472.02 618.31L448.68 471.24C448.19 468.62 448.28 465.93 448.95 463.35 449.62 460.77 450.85 458.37 452.54 456.32 454.25 454.37 456.37 452.81 458.75 451.77 461.13 450.72 463.71 450.21 466.31 450.28H689.27C700.81 450.28 711.71 459.68 713.56 471.23L736.9 618.3C737.46 620.88 737.42 623.56 736.78 626.12 736.14 628.69 734.93 631.08 733.22 633.1 731.52 635.12 729.38 636.73 726.96 637.8 724.55 638.87 721.92 639.37 719.28 639.27H496.32Z" fill="#8a2ce2" opacity="1" stroke-width="4" stroke="none"></path><path d="M568.65 639.15L558.49 575.76 629.01 575.73 639.17 639.15H568.65Z" fill="#070707" opacity="0.15" stroke-width="4" stroke="none"></path><path d="M531.62 675.6L558.38 575.63 628.89 575.61 602.13 675.6H531.62Z" fill="#8a2ce2" opacity="1" stroke-width="4" stroke="none"></path><path d="M585.28 537.73C577.86 537.73 570.58 532 567.15 523.48 565.07 518.56 564.7 513.09 566.09 507.93 566.64 505.72 567.69 503.66 569.17 501.91 570.64 500.17 572.5 498.79 574.6 497.88 576.18 497.25 577.88 496.92 579.58 496.93 587 496.93 594.28 502.65 597.71 511.17 602.03 521.89 598.68 533.38 590.26 536.77 588.67 537.41 586.98 537.73 585.28 537.73Z" fill="#d5d4d5" opacity="1" stroke-width="4" stroke="none"></path><path d="M541.85 638.54L558.41 576.79H628.9L612.34 638.54" stroke="#070707" stroke-width="4" stroke-linecap="round" stroke-linejoin="round" opacity="1" fill="none"></path><path d="M618.66 675.6L618.63 673.27C618.63 669.63 620.08 666.14 622.65 663.57 625.22 661 628.71 659.56 632.35 659.55H857.95C861.59 659.56 865.07 661 867.64 663.57 870.22 666.14 871.66 669.63 871.67 673.27V675.6H618.66Z" fill="#8a2ce2" opacity="1" stroke-width="4" stroke="none"></path><path d="M777.34 675.6L777.31 673.27C777.32 669.63 778.76 666.14 781.33 663.57 783.9 661 787.39 659.56 791.03 659.55H857.95C861.59 659.56 865.07 661 867.64 663.57 870.22 666.14 871.66 669.63 871.67 673.27V675.6H777.34Z" fill="#070707" opacity="1" stroke-width="4" stroke="none"></path></g><g><path d="M1040.94 997.3L1028.45 999.58 1023.9 1021.15 1013.68 1023.42 1034.13 1060.9 1045.48 1054.08 1079.55 1063.17 1085.23 1041.59 1101.12 1034.78 1085.23 1014.34 1088.63 998.44 1060.24 984.81 1040.94 997.3Z" fill="#8a2ce2" opacity="1" stroke-width="4" stroke="none"></path></g></svg>